<svg width="48" height="48" viewBox="0 0 48 48" fill="none" xmlns="http://www.w3.org/2000/svg">
<g clip-path="url(#clip0_19_16819)">
<path d="M46 44.0001H44V28.0001C43.9968 25.3489 42.9422 22.8072 41.0676 20.9325C39.1929 19.0578 36.6512 18.0032 34 18.0001H26V12.0781C26.891 11.6892 27.6492 11.0491 28.182 10.236C28.7149 9.42293 28.9991 8.47217 29 7.50006C28.4597 4.94361 27.2427 2.57923 25.476 0.654061C25.2886 0.44912 25.0606 0.285448 24.8065 0.17347C24.5524 0.0614926 24.2777 0.00366211 24 0.00366211C23.7223 0.00366211 23.4476 0.0614926 23.1935 0.17347C22.9394 0.285448 22.7114 0.44912 22.524 0.654061C20.7573 2.57923 19.5403 4.94361 19 7.50006C19.0009 8.47217 19.2851 9.42293 19.818 10.236C20.3508 11.0491 21.109 11.6892 22 12.0781V18.0001H14C11.3488 18.0032 8.80712 19.0578 6.93244 20.9325C5.05776 22.8072 4.00318 25.3489 4 28.0001V44.0001H2C1.46957 44.0001 0.960859 44.2108 0.585786 44.5858C0.210714 44.9609 0 45.4696 0 46.0001C0 46.5305 0.210714 47.0392 0.585786 47.4143C0.960859 47.7893 1.46957 48.0001 2 48.0001H46C46.5304 48.0001 47.0391 47.7893 47.4142 47.4143C47.7893 47.0392 48 46.5305 48 46.0001C48 45.4696 47.7893 44.9609 47.4142 44.5858C47.0391 44.2108 46.5304 44.0001 46 44.0001ZM14 22.0001H34C35.5913 22.0001 37.1174 22.6322 38.2426 23.7574C39.3679 24.8826 40 26.4088 40 28.0001V31.9601C38.128 31.7601 37 30.5601 37 30.0001C37 29.4696 36.7893 28.9609 36.4142 28.5858C36.0391 28.2108 35.5304 28.0001 35 28.0001C34.4696 28.0001 33.9609 28.2108 33.5858 28.5858C33.2107 28.9609 33 29.4696 33 30.0001C33 30.6861 31.636 32.0001 29.5 32.0001C27.322 32.0001 26 30.6121 26 30.0001C26 29.4696 25.7893 28.9609 25.4142 28.5858C25.0391 28.2108 24.5304 28.0001 24 28.0001C23.4696 28.0001 22.9609 28.2108 22.5858 28.5858C22.2107 28.9609 22 29.4696 22 30.0001C22 30.6861 20.636 32.0001 18.5 32.0001C16.322 32.0001 15 30.6121 15 30.0001C15 29.4696 14.7893 28.9609 14.4142 28.5858C14.0391 28.2108 13.5304 28.0001 13 28.0001C12.4696 28.0001 11.9609 28.2108 11.5858 28.5858C11.2107 28.9609 11 29.4696 11 30.0001C11 30.6301 9.842 31.7761 8 31.9621V28.0001C8 26.4088 8.63214 24.8826 9.75736 23.7574C10.8826 22.6322 12.4087 22.0001 14 22.0001ZM8 35.9581C9.83739 35.8765 11.5959 35.1879 13 34.0001C14.5427 35.2861 16.4862 35.9928 18.4946 35.9983C20.503 36.0038 22.4503 35.3076 24 34.0301C25.5497 35.3076 27.497 36.0038 29.5054 35.9983C31.5138 35.9928 33.4573 35.2861 35 34.0001C36.4044 35.1872 38.1628 35.8751 40 35.9561V44.0001H8V35.9581Z" fill="#6A14D1"/>
</g>
<defs>
<clipPath id="clip0_19_16819">
<rect width="48" height="48" fill="white"/>
</clipPath>
</defs>
</svg>
