<svg width="48" height="48" viewBox="0 0 48 48" fill="none" xmlns="http://www.w3.org/2000/svg">
<g clip-path="url(#clip0_19_16827)">
<path d="M46.5998 24.156C45.9328 23.3716 45.0744 22.7729 44.1078 22.418L45.6638 17.94C45.9785 16.9882 46.0511 15.9729 45.8751 14.9859C45.699 13.9989 45.2797 13.0714 44.6552 12.2871C44.0307 11.5028 43.2207 10.8865 42.2982 10.4938C41.3757 10.1011 40.37 9.94449 39.3718 10.038L39.9138 7.00004C40.1899 5.43182 39.8317 3.81814 38.918 2.51402C38.0043 1.20989 36.61 0.32213 35.0418 0.0460397C33.4736 -0.230051 31.8599 0.128142 30.5558 1.04182C29.2516 1.9555 28.3639 3.34982 28.0878 4.91804L27.9658 5.53204C26.8727 4.56064 25.4611 4.02408 23.9988 4.02408C22.5364 4.02408 21.1249 4.56064 20.0318 5.53204L19.9198 4.97404C19.6498 3.40502 18.7676 2.00751 17.4672 1.08896C16.1668 0.170408 14.5548 -0.193951 12.9858 0.0760398C11.4168 0.34603 10.0193 1.22825 9.10071 2.52863C8.18216 3.82901 7.8178 5.44102 8.08779 7.01004L8.62179 10.038C7.62254 9.94439 6.61572 10.1015 5.69248 10.495C4.76925 10.8886 3.95877 11.5063 3.33442 12.2921C2.71008 13.0778 2.2916 14.0069 2.11688 14.9952C1.94216 15.9835 2.01671 16.9998 2.33379 17.952L3.88579 22.418C2.57343 22.9056 1.47459 23.8396 0.781964 25.0563C0.089334 26.273 -0.152881 27.6947 0.0977886 29.072L2.04579 39.786C2.4641 42.0906 3.67805 44.1751 5.47595 45.6762C7.27385 47.1774 9.54161 47.9998 11.8838 48H36.1158C38.4574 47.9999 40.7247 47.1781 42.5225 45.6778C44.3203 44.1775 45.5346 42.0938 45.9538 39.79L47.9018 29.078C48.0607 28.2124 48.0265 27.3223 47.8014 26.4714C47.5763 25.6205 47.166 24.8299 46.5998 24.156ZM40.6318 14.11C41.133 14.28 41.5465 14.6417 41.7815 15.1159C42.0166 15.5902 42.0541 16.1382 41.8858 16.64L40.0258 22H37.2598L38.5678 14.6C38.8313 14.333 39.1645 14.1455 39.5295 14.0588C39.8944 13.9722 40.2764 13.9899 40.6318 14.11ZM34.3338 4.02004C34.8556 4.10866 35.321 4.4005 35.628 4.83161C35.935 5.26272 36.0587 5.79795 35.9718 6.32004L33.1998 22H29.9998V15.816L32.0218 5.65404C32.0661 5.39483 32.161 5.1469 32.3013 4.92443C32.4415 4.70196 32.6242 4.50933 32.8389 4.35756C33.0537 4.20579 33.2962 4.09786 33.5527 4.03994C33.8093 3.98202 34.0747 3.97526 34.3338 4.02004ZM21.9998 10C21.9998 9.46961 22.2105 8.9609 22.5856 8.58583C22.9606 8.21076 23.4694 8.00004 23.9998 8.00004C24.5302 8.00004 25.0389 8.21076 25.414 8.58583C25.7891 8.9609 25.9998 9.46961 25.9998 10V22H21.9998V10ZM13.6658 4.02004C13.929 3.97675 14.1982 3.98606 14.4577 4.04745C14.7173 4.10884 14.9621 4.22108 15.1781 4.37767C15.394 4.53427 15.5767 4.73213 15.7157 4.95979C15.8547 5.18745 15.9472 5.44041 15.9878 5.70404L17.9998 15.816V22H14.7998L12.0298 6.33004C11.9853 6.07092 11.9924 5.80557 12.0506 5.54918C12.1087 5.29279 12.2169 5.05039 12.3688 4.83584C12.5208 4.62128 12.7136 4.4388 12.9361 4.29882C13.1586 4.15883 13.4066 4.0641 13.6658 4.02004ZM7.36779 14.11C7.72316 13.9899 8.10514 13.9722 8.47011 14.0588C8.83508 14.1455 9.16832 14.333 9.43179 14.6L10.7398 22H7.97379L6.11779 16.652C6.03254 16.4031 5.99726 16.1397 6.01398 15.8771C6.03069 15.6145 6.09907 15.3577 6.21519 15.1216C6.33132 14.8855 6.4929 14.6745 6.69069 14.501C6.88847 14.3274 7.11857 14.1945 7.36779 14.11ZM43.9678 28.358L42.0198 39.068C41.7695 40.4516 41.0413 41.7034 39.9622 42.6048C38.8832 43.5062 37.5218 44 36.1158 44H11.8838C10.4793 43.9999 9.11929 43.507 8.0408 42.6072C6.96232 41.7074 6.23367 40.4578 5.98179 39.076L4.03379 28.364C3.98038 28.0755 3.99112 27.7788 4.06524 27.4949C4.13936 27.2109 4.27504 26.9468 4.46266 26.7212C4.65029 26.4956 4.88525 26.314 5.1509 26.1894C5.41654 26.0648 5.70636 26.0001 5.99979 26H41.9998C42.2926 26.0003 42.5818 26.0648 42.8469 26.1891C43.1121 26.3134 43.3467 26.4944 43.5342 26.7193C43.7217 26.9442 43.8576 27.2075 43.9321 27.4907C44.0067 27.7739 44.0182 28.07 43.9658 28.358H43.9678Z" fill="#6A14D1"/>
</g>
<defs>
<clipPath id="clip0_19_16827">
<rect width="48" height="48" fill="white"/>
</clipPath>
</defs>
</svg>
