<svg width="24" height="25" viewBox="0 0 24 25" fill="none" xmlns="http://www.w3.org/2000/svg">
<g clip-path="url(#clip0_119_1209)">
<path d="M2.57171 4.78613C2.11705 4.78613 1.68102 4.96674 1.35952 5.28824C1.03803 5.60973 0.857422 6.04576 0.857422 6.50042V21.929C0.857422 22.3836 1.03803 22.8197 1.35952 23.1412C1.68102 23.4627 2.11705 23.6433 2.57171 23.6433H21.4289C21.8835 23.6433 22.3195 23.4627 22.641 23.1412C22.9625 22.8197 23.1431 22.3836 23.1431 21.929V6.50042C23.1431 6.04576 22.9625 5.60973 22.641 5.28824C22.3195 4.96674 21.8835 4.78613 21.4289 4.78613H18.0003" stroke="#444444" stroke-width="1.71429" stroke-linecap="round" stroke-linejoin="round"/>
<path d="M6 1.35742V8.21456" stroke="#444444" stroke-width="1.71429" stroke-linecap="round" stroke-linejoin="round"/>
<path d="M18 1.35742V8.21456" stroke="#444444" stroke-width="1.71429" stroke-linecap="round" stroke-linejoin="round"/>
<path d="M6 4.78613H14.5714" stroke="#444444" stroke-width="1.71429" stroke-linecap="round" stroke-linejoin="round"/>
<path d="M5.99972 14.2143C6.47311 14.2143 6.85686 13.8305 6.85686 13.3571C6.85686 12.8838 6.47311 12.5 5.99972 12.5C5.52633 12.5 5.14258 12.8838 5.14258 13.3571C5.14258 13.8305 5.52633 14.2143 5.99972 14.2143Z" stroke="#444444" stroke-width="1.71429" stroke-linecap="round" stroke-linejoin="round"/>
<path d="M11.9997 14.2143C12.4731 14.2143 12.8569 13.8305 12.8569 13.3571C12.8569 12.8838 12.4731 12.5 11.9997 12.5C11.5263 12.5 11.1426 12.8838 11.1426 13.3571C11.1426 13.8305 11.5263 14.2143 11.9997 14.2143Z" stroke="#444444" stroke-width="1.71429" stroke-linecap="round" stroke-linejoin="round"/>
<path d="M17.9997 14.2143C18.4731 14.2143 18.8569 13.8305 18.8569 13.3571C18.8569 12.8838 18.4731 12.5 17.9997 12.5C17.5263 12.5 17.1426 12.8838 17.1426 13.3571C17.1426 13.8305 17.5263 14.2143 17.9997 14.2143Z" stroke="#444444" stroke-width="1.71429" stroke-linecap="round" stroke-linejoin="round"/>
<path d="M5.99972 19.3578C6.47311 19.3578 6.85686 18.9741 6.85686 18.5007C6.85686 18.0273 6.47311 17.6436 5.99972 17.6436C5.52633 17.6436 5.14258 18.0273 5.14258 18.5007C5.14258 18.9741 5.52633 19.3578 5.99972 19.3578Z" stroke="#444444" stroke-width="1.71429" stroke-linecap="round" stroke-linejoin="round"/>
</g>
<defs>
<clipPath id="clip0_119_1209">
<rect width="24" height="24" fill="white" transform="translate(0 0.5)"/>
</clipPath>
</defs>
</svg>
