<svg width="564" height="362" viewBox="0 0 564 362" fill="none" xmlns="http://www.w3.org/2000/svg">
<g clip-path="url(#clip0_79_913)">
<path d="M541.954 242.258C537.882 246.57 532.831 249.78 527.35 252.272H527.344C526.828 252.509 526.312 252.74 525.79 252.958H525.784L525.777 252.964L525.77 252.958H525.764C525.764 252.959 525.764 252.96 525.763 252.96C525.763 252.961 525.762 252.962 525.762 252.963C525.761 252.963 525.76 252.964 525.76 252.964C525.759 252.964 525.758 252.964 525.757 252.964H525.75L525.744 252.958C525.737 252.964 525.737 252.964 525.731 252.958L525.724 252.964L525.717 252.958H525.711C525.704 252.964 525.704 252.964 525.698 252.958H525.691C522.023 254.496 518.255 255.801 514.412 256.866C491.816 263.079 468.065 264.281 444.924 260.384C444.481 260.307 444.044 260.23 443.602 260.153V208.185C444.038 208.006 444.481 207.826 444.924 207.653C447.813 206.494 450.737 205.428 453.697 204.456C457.954 203.047 462.271 201.838 466.648 200.83C480.926 197.481 495.659 196.326 510.307 197.409C512.971 197.601 515.629 197.878 518.28 198.241C523.827 198.991 529.644 200.298 534.761 202.566H534.768C535.515 202.906 536.249 203.258 536.976 203.636C541.524 206.026 545.359 209.313 547.699 213.817C548.54 215.435 549.145 217.158 549.497 218.936V218.949C549.629 219.564 549.722 220.186 549.795 220.801C550.628 228.387 547.382 236.505 541.954 242.258Z" fill="#F2F2F2"/>
<path d="M549.795 220.801C549.73 220.816 549.663 220.825 549.597 220.826C538.272 221.307 526.963 222.02 515.668 222.966H515.649C515.603 222.973 515.563 222.973 515.517 222.979C503.921 223.953 492.349 225.172 480.802 226.637C480.313 226.702 479.83 226.766 479.347 226.823C471.362 227.855 463.391 229 455.435 230.257C451.925 230.815 448.421 231.396 444.924 232C444.481 232.077 444.044 232.148 443.602 232.231V230.29C444.044 230.206 444.487 230.136 444.924 230.059C456.573 228.06 468.261 226.315 479.989 224.824C482.937 224.44 485.89 224.077 488.847 223.735C497.389 222.736 505.944 221.873 514.511 221.147C515.14 221.095 515.761 221.044 516.389 220.993C527.357 220.089 538.34 219.404 549.339 218.936C549.392 218.934 549.445 218.938 549.497 218.949C550.555 219.039 550.78 220.576 549.795 220.801Z" fill="#B6B6B6"/>
<path d="M526.276 251.07C512.169 251.17 498.27 245.373 488.291 235.777C485.475 233.058 482.994 230.033 480.897 226.762C480.224 225.716 478.651 226.869 479.318 227.906C487.067 239.951 499.977 248.532 514.21 251.687C518.251 252.575 522.386 253.003 526.53 252.965C527.795 252.956 527.533 251.061 526.276 251.07V251.07Z" fill="#B6B6B6"/>
<path d="M466.648 200.83C466.587 201.01 466.479 201.172 466.334 201.299C466.189 201.426 466.012 201.514 465.821 201.554C462.588 202.375 459.464 203.558 456.513 205.078C452.203 207.284 448.29 210.151 444.924 213.567C444.745 213.74 444.574 213.913 444.408 214.093C444.13 214.375 443.866 214.663 443.602 214.958V212.164C444.025 211.729 444.468 211.299 444.924 210.889C447.581 208.423 450.525 206.264 453.697 204.456C457.954 203.047 462.271 201.838 466.648 200.83Z" fill="white"/>
<path d="M535.93 202.061C526.956 205.799 519.447 212.215 514.496 220.376C514.396 220.61 514.395 220.872 514.493 221.106C514.591 221.341 514.78 221.528 515.02 221.628C515.261 221.72 515.53 221.719 515.771 221.625C516.011 221.53 516.205 221.349 516.312 221.12C521.037 213.412 528.166 207.359 536.671 203.831C537.838 203.348 537.1 201.577 535.93 202.061L535.93 202.061Z" fill="#B6B6B6"/>
<path d="M562.984 147.645C561.45 153.296 558.508 158.415 554.852 163.086L554.846 163.092C554.508 163.528 554.158 163.97 553.795 164.393V164.399C551.256 167.43 548.516 170.296 545.59 172.978C535.074 182.691 523.196 190.915 510.307 197.409C490.031 207.673 467.368 213.74 444.924 214.086C444.752 214.093 444.58 214.093 444.408 214.093C444.137 214.099 443.866 214.099 443.602 214.099V184.979C444.031 184.184 444.474 183.39 444.924 182.602C450.757 172.43 457.869 163 466.099 154.526C466.297 154.315 466.502 154.103 466.707 153.898C469.801 150.733 473.045 147.72 476.439 144.858C489.494 133.733 504.582 125.073 520.924 119.326C526.193 117.493 531.971 116.026 537.591 115.738C538.417 115.693 539.237 115.674 540.063 115.68C545.24 115.75 550.205 116.936 554.442 119.87C555.96 120.926 557.321 122.179 558.489 123.593C558.898 124.086 559.275 124.592 559.639 125.111V125.118C564.015 131.461 565.033 140.104 562.984 147.645Z" fill="#F2F2F2"/>
<path d="M559.639 125.111V125.118C559.59 125.159 559.537 125.195 559.48 125.226C549.696 130.743 540.035 136.46 530.497 142.378C530.484 142.385 530.477 142.391 530.464 142.397C530.426 142.423 530.386 142.447 530.345 142.468C520.541 148.555 510.875 154.846 501.349 161.343C500.952 161.612 500.549 161.888 500.146 162.163C493.568 166.667 487.058 171.268 480.617 175.964C468.452 184.844 456.555 194.053 444.924 203.591C444.481 203.95 444.044 204.315 443.602 204.681V202.188C444.038 201.823 444.481 201.458 444.924 201.099C449.38 197.453 453.875 193.859 458.41 190.316C459.766 189.259 461.127 188.202 462.489 187.157C474.588 177.822 486.957 168.835 499.597 160.196H499.604C502.09 158.498 504.58 156.815 507.074 155.148C514.161 150.419 521.328 145.804 528.574 141.302C529.096 140.975 529.625 140.648 530.153 140.322C539.429 134.581 548.825 129.028 558.343 123.663C558.389 123.636 558.438 123.612 558.489 123.593C559.48 123.208 560.412 124.477 559.639 125.111Z" fill="#B6B6B6"/>
<path d="M553.323 162.505C540.878 168.945 525.791 170.068 512.354 166.063C508.558 164.923 504.911 163.361 501.486 161.408C500.389 160.785 499.548 162.515 500.636 163.132C513.272 170.31 528.817 172.097 542.933 168.484C546.938 167.45 550.805 165.969 554.456 164.069C555.572 163.491 554.432 161.931 553.323 162.505V162.505Z" fill="#B6B6B6"/>
<path d="M460.209 185.947C459.593 182.593 459.382 179.181 459.58 175.78C460.025 168.023 462.476 160.498 466.707 153.899C469.804 150.735 473.049 147.721 476.44 144.857C476.472 145.045 476.454 145.237 476.386 145.415C476.318 145.593 476.203 145.751 476.053 145.873C473.585 148.056 471.386 150.508 469.5 153.182C462.764 162.709 460.135 174.41 462.174 185.789C462.207 185.918 462.205 186.053 462.169 186.181C462.132 186.309 462.063 186.426 461.966 186.521C461.825 186.64 461.654 186.722 461.47 186.757C461.286 186.793 461.096 186.781 460.918 186.723C460.74 186.665 460.581 186.563 460.457 186.427C460.333 186.291 460.247 186.125 460.209 185.947Z" fill="#B6B6B6"/>
<path d="M538.382 114.759C532.227 122.109 528.653 131.172 528.18 140.627C528.203 140.879 528.328 141.112 528.527 141.275C528.726 141.439 528.984 141.519 529.244 141.5C529.502 141.473 529.739 141.351 529.907 141.159C530.075 140.967 530.16 140.72 530.144 140.469C530.635 131.516 534.046 122.945 539.887 115.993C540.689 115.04 539.186 113.804 538.382 114.759Z" fill="#B6B6B6"/>
<path d="M469.92 135.811V135.817C469.874 136.368 469.821 136.913 469.761 137.457V137.47C469.302 141.347 468.584 145.19 467.613 148.977C467.15 150.835 466.648 152.68 466.099 154.526C466.033 154.763 465.96 155 465.887 155.231V155.237C464.273 160.604 462.344 165.877 460.109 171.03C455.999 180.519 450.911 189.582 444.924 198.081C444.494 198.703 444.051 199.324 443.602 199.939V99.6042C444.044 99.5786 444.481 99.5786 444.924 99.5914C445.135 99.5914 445.347 99.5978 445.558 99.6106C447.424 99.7056 449.266 100.053 451.033 100.642C451.654 100.841 452.255 101.065 452.851 101.315C460.063 104.378 465.729 111.131 468.188 118.556C470.033 124.118 470.403 129.967 469.92 135.811Z" fill="#F2F2F2"/>
<path d="M452.851 101.315C452.835 101.378 452.81 101.438 452.778 101.495C450.1 106.537 447.482 111.605 444.924 116.699C444.481 117.576 444.038 118.46 443.602 119.338V114.981C444.038 114.11 444.479 113.239 444.924 112.367C446.901 108.485 448.91 104.619 450.953 100.771C450.976 100.726 451.002 100.683 451.033 100.642C451.641 99.7966 453.148 100.373 452.851 101.315Z" fill="#B6B6B6"/>
<path d="M470.132 136.843C470.013 137.048 469.894 137.253 469.761 137.458C467.82 140.736 465.51 143.796 462.873 146.581C457.808 151.907 451.708 156.211 444.924 159.248C444.487 159.453 444.044 159.645 443.602 159.825V157.742C444.044 157.55 444.487 157.352 444.924 157.147C454.745 152.607 462.902 145.271 468.307 136.119C468.385 135.988 468.491 135.875 468.618 135.787C468.745 135.7 468.89 135.64 469.043 135.611C469.196 135.583 469.353 135.586 469.505 135.622C469.656 135.657 469.798 135.724 469.92 135.817C470.004 135.871 470.075 135.94 470.131 136.021C470.187 136.102 470.226 136.192 470.245 136.287C470.265 136.383 470.265 136.481 470.245 136.576C470.226 136.671 470.187 136.762 470.132 136.843Z" fill="#B6B6B6"/>
<path d="M444.923 21.1434V69.8372H443.601V69.3182H1.32221V69.8372H0V21.1434C0.00567782 15.5375 2.30601 10.1628 6.39616 6.19882C10.4863 2.23486 16.0321 0.00550264 21.8165 0H423.107C428.891 0.00550264 434.437 2.23486 438.527 6.19882C442.617 10.1628 444.918 15.5375 444.923 21.1434Z" fill="#6A14D1"/>
<path d="M423.107 0H21.8165C16.0321 0.00550264 10.4863 2.23486 6.39616 6.19882C2.30601 10.1628 0.00567782 15.5375 0 21.1434V299.211C0.00567782 304.816 2.30601 310.191 6.39616 314.155C10.4863 318.119 16.0321 320.348 21.8165 320.354H423.107C428.891 320.348 434.437 318.119 438.527 314.155C442.617 310.191 444.918 304.816 444.923 299.211V21.1434C444.918 15.5375 442.617 10.1628 438.527 6.19882C434.437 2.23486 428.891 0.00550264 423.107 0ZM443.601 299.211C443.594 304.476 441.433 309.524 437.591 313.248C433.749 316.971 428.54 319.066 423.107 319.073H21.8165C16.3832 319.066 11.1744 316.971 7.33249 313.248C3.49057 309.524 1.32914 304.476 1.32221 299.211V21.1434C1.32914 15.8777 3.49057 10.8297 7.33249 7.10627C11.1744 3.38289 16.3832 1.28813 21.8165 1.28142H423.107C428.54 1.28814 433.749 3.38289 437.591 7.10627C441.433 10.8297 443.594 15.8777 443.601 21.1434V299.211Z" fill="#3F3D56"/>
<path d="M89.9096 47.7328C97.212 47.7328 103.132 41.9957 103.132 34.9187C103.132 27.8416 97.212 22.1045 89.9096 22.1045C82.6072 22.1045 76.6875 27.8416 76.6875 34.9187C76.6875 41.9957 82.6072 47.7328 89.9096 47.7328Z" fill="white"/>
<path d="M355.013 47.7327C362.315 47.7327 368.235 41.9956 368.235 34.9185C368.235 27.8415 362.315 22.1044 355.013 22.1044C347.711 22.1044 341.791 27.8415 341.791 34.9185C341.791 41.9956 347.711 47.7327 355.013 47.7327Z" fill="white"/>
<path d="M128.111 177.798H49.4553C46.123 177.794 42.9284 176.51 40.5721 174.226C38.2159 171.942 36.8905 168.846 36.8867 165.617V129.588C36.8905 126.359 38.2159 123.263 40.5721 120.979C42.9284 118.696 46.123 117.411 49.4553 117.407H128.111C131.443 117.411 134.638 118.696 136.994 120.979C139.35 123.263 140.676 126.359 140.68 129.588V165.617C140.676 168.846 139.35 171.942 136.994 174.226C134.638 176.51 131.443 177.794 128.111 177.798Z" fill="#6A14D1"/>
<path d="M261.918 177.798H183.262C179.93 177.794 176.735 176.51 174.379 174.226C172.023 171.942 170.697 168.846 170.693 165.617V129.588C170.697 126.359 172.023 123.263 174.379 120.979C176.735 118.696 179.93 117.411 183.262 117.407H261.918C265.25 117.411 268.445 118.696 270.801 120.979C273.157 123.263 274.482 126.359 274.486 129.588V165.617C274.482 168.846 273.157 171.942 270.801 174.226C268.445 176.51 265.25 177.794 261.918 177.798Z" fill="#6A14D1"/>
<path d="M261.918 270.887H183.262C179.829 270.883 176.537 269.56 174.11 267.207C171.682 264.854 170.316 261.665 170.312 258.337V222.308C170.316 218.981 171.682 215.791 174.11 213.438C176.537 211.085 179.829 209.762 183.262 209.758H261.918C265.351 209.762 268.642 211.085 271.07 213.438C273.498 215.791 274.863 218.981 274.867 222.308V258.337C274.863 261.665 273.498 264.854 271.07 267.207C268.642 269.56 265.351 270.883 261.918 270.887Z" fill="#F5F5F5"/>
<path d="M127.853 270.887H49.1974C45.7642 270.883 42.4727 269.56 40.0451 267.207C37.6175 264.854 36.2519 261.665 36.248 258.337V222.308C36.2519 218.981 37.6175 215.791 40.0451 213.438C42.4727 211.085 45.7642 209.762 49.1974 209.758H127.853C131.286 209.762 134.578 211.085 137.006 213.438C139.433 215.791 140.799 218.981 140.803 222.308V258.337C140.799 261.665 139.433 264.854 137.006 267.207C134.578 269.56 131.286 270.883 127.853 270.887Z" fill="#F5F5F5"/>
<path d="M395.724 270.887H317.069C313.635 270.883 310.344 269.56 307.916 267.207C305.489 264.854 304.123 261.665 304.119 258.337V222.308C304.123 218.981 305.489 215.791 307.916 213.438C310.344 211.085 313.635 209.762 317.069 209.758H395.724C399.157 209.762 402.449 211.085 404.877 213.438C407.304 215.791 408.67 218.981 408.674 222.308V258.337C408.67 261.665 407.304 264.854 404.877 267.207C402.449 269.56 399.157 270.883 395.724 270.887Z" fill="#F2F2F2"/>
<path d="M395.724 177.87H317.069C313.635 177.866 310.344 176.543 307.916 174.19C305.489 171.838 304.123 168.648 304.119 165.32V129.291C304.123 125.964 305.489 122.774 307.916 120.421C310.344 118.069 313.635 116.745 317.069 116.741H395.724C399.157 116.745 402.449 118.069 404.877 120.421C407.304 122.774 408.67 125.964 408.674 129.291V165.32C408.67 168.648 407.304 171.838 404.877 174.19C402.449 176.543 399.157 177.866 395.724 177.87Z" fill="#F2F2F2"/>
<path d="M88.7855 168.273C100.565 168.273 110.114 159.019 110.114 147.603C110.114 136.187 100.565 126.932 88.7855 126.932C77.0061 126.932 67.457 136.187 67.457 147.603C67.457 159.019 77.0061 168.273 88.7855 168.273Z" fill="white"/>
<path d="M86.6691 155.488C86.1892 155.489 85.7221 155.338 85.3381 155.059L85.3143 155.042L80.302 151.323C80.0695 151.151 79.8744 150.936 79.7277 150.69C79.581 150.445 79.4857 150.174 79.4471 149.893C79.4086 149.612 79.4276 149.326 79.5031 149.052C79.5785 148.778 79.709 148.521 79.8869 148.296C80.0649 148.071 80.2869 147.882 80.5403 147.74C80.7936 147.598 81.0734 147.506 81.3635 147.469C81.6536 147.432 81.9484 147.45 82.231 147.524C82.5137 147.597 82.7786 147.724 83.0107 147.897L86.2574 150.309L93.9296 140.612C94.1075 140.387 94.3294 140.199 94.5826 140.057C94.8358 139.915 95.1154 139.823 95.4053 139.786C95.6952 139.749 95.9899 139.767 96.2724 139.841C96.5549 139.914 96.8197 140.04 97.0518 140.213L97.0041 140.276L97.053 140.214C97.5211 140.562 97.8274 141.077 97.9046 141.644C97.9819 142.211 97.8238 142.785 97.4651 143.24L88.4407 154.646C88.232 154.908 87.9636 155.121 87.6564 155.267C87.3491 155.413 87.0113 155.489 86.6691 155.488Z" fill="#6C63FF"/>
<path d="M222.973 167.976C234.752 167.976 244.301 158.722 244.301 147.306C244.301 135.89 234.752 126.635 222.973 126.635C211.194 126.635 201.645 135.89 201.645 147.306C201.645 158.722 211.194 167.976 222.973 167.976Z" fill="white"/>
<path d="M220.857 155.191C220.377 155.192 219.91 155.042 219.526 154.763L219.502 154.745L214.49 151.026C214.021 150.678 213.714 150.164 213.636 149.596C213.559 149.029 213.717 148.455 214.076 148.001C214.436 147.546 214.966 147.249 215.552 147.174C216.137 147.099 216.73 147.252 217.198 147.6L220.445 150.013L228.117 140.316C228.295 140.091 228.517 139.902 228.77 139.76C229.024 139.618 229.303 139.526 229.593 139.489C229.883 139.452 230.178 139.471 230.46 139.544C230.743 139.617 231.007 139.744 231.239 139.916L231.192 139.979L231.241 139.917C231.709 140.266 232.015 140.78 232.092 141.348C232.17 141.915 232.012 142.489 231.653 142.943L222.628 154.349C222.42 154.612 222.151 154.825 221.844 154.971C221.537 155.117 221.199 155.192 220.857 155.191Z" fill="#6C63FF"/>
<path d="M367.119 244.846C367.819 244.104 368.343 243.221 368.654 242.261C368.965 241.301 369.055 240.287 368.917 239.289C368.78 238.292 368.418 237.336 367.858 236.489C367.298 235.641 366.553 234.923 365.676 234.385L353.768 172.767L339.287 177.971L355.545 236.904C354.71 238.392 354.467 240.125 354.863 241.776C355.259 243.426 356.265 244.878 357.692 245.857C359.118 246.836 360.866 247.274 362.603 247.088C364.341 246.901 365.947 246.104 367.119 244.846Z" fill="#A0616A"/>
<path d="M251.568 150.823C251.604 151.206 251.609 151.59 251.582 151.974L279.739 172.976L287.723 169.798L294.246 180.85L280.675 187.806C279.579 188.368 278.324 188.571 277.099 188.383C275.874 188.195 274.745 187.627 273.881 186.764L245.738 158.644C244.248 158.969 242.691 158.848 241.274 158.295C239.858 157.742 238.648 156.784 237.807 155.549C236.965 154.314 236.532 152.86 236.564 151.38C236.596 149.9 237.093 148.465 237.987 147.265C238.881 146.066 240.131 145.158 241.571 144.664C243.01 144.169 244.571 144.112 246.045 144.498C247.52 144.884 248.838 145.696 249.824 146.826C250.811 147.956 251.419 149.35 251.568 150.823H251.568Z" fill="#A0616A"/>
<path d="M317.347 354.215H309.243L305.387 330.324L317.349 330.325L317.347 354.215Z" fill="#A0616A"/>
<path d="M319.415 361.829L293.281 361.828V361.508C293.281 360.213 293.544 358.931 294.055 357.735C294.567 356.539 295.316 355.453 296.261 354.537C297.205 353.622 298.326 352.896 299.561 352.4C300.795 351.905 302.118 351.65 303.453 351.65H303.454L319.416 351.651L319.415 361.829Z" fill="#2F2E41"/>
<path d="M347.76 354.215H339.655L335.799 330.324L347.762 330.325L347.76 354.215Z" fill="#A0616A"/>
<path d="M349.827 361.829L323.693 361.828V361.508C323.693 360.213 323.956 358.931 324.468 357.735C324.979 356.539 325.728 355.453 326.673 354.537C327.617 353.622 328.739 352.896 329.973 352.4C331.207 351.905 332.53 351.65 333.865 351.65H333.866L349.828 351.651L349.827 361.829Z" fill="#2F2E41"/>
<path d="M307.56 349.493C306.82 349.494 306.107 349.227 305.56 348.744C305.012 348.261 304.671 347.598 304.602 346.884L297.539 254.821L297.873 254.795L346.478 250.923L346.491 251.258L350.355 346.627C350.37 347.015 350.304 347.401 350.161 347.763C350.019 348.126 349.802 348.456 349.524 348.735C349.247 349.015 348.914 349.237 348.546 349.388C348.178 349.54 347.782 349.618 347.382 349.618H337.852C337.14 349.621 336.451 349.376 335.911 348.927C335.371 348.478 335.016 347.856 334.911 347.174L321.969 270.132C321.957 270.052 321.914 269.98 321.849 269.93C321.784 269.88 321.702 269.855 321.619 269.861C321.536 269.867 321.458 269.903 321.402 269.961C321.345 270.02 321.313 270.097 321.312 270.178L320.725 346.245C320.719 346.98 320.424 347.684 319.9 348.216C319.377 348.747 318.664 349.065 317.907 349.104L307.72 349.489C307.667 349.492 307.613 349.493 307.56 349.493Z" fill="#2F2E41"/>
<path d="M315.857 138.473C324.824 138.473 332.094 131.428 332.094 122.737C332.094 114.046 324.824 107 315.857 107C306.889 107 299.619 114.046 299.619 122.737C299.619 131.428 306.889 138.473 315.857 138.473Z" fill="#A0616A"/>
<path d="M319.002 260.692C311.904 260.672 304.842 259.736 297.999 257.91C297.341 257.725 296.769 257.325 296.379 256.778C295.989 256.231 295.806 255.57 295.86 254.908C298.046 223.069 298.56 198.361 293.963 181.265C292.004 173.979 292.894 166.306 296.404 160.212C301.686 151.041 311.394 145.46 321.75 145.653C322.245 145.662 322.745 145.679 323.25 145.704C338.966 146.488 351.213 160.268 350.55 176.421L347.388 253.414C347.377 253.975 347.194 254.521 346.863 254.982C346.532 255.443 346.067 255.799 345.527 256.005C337.047 259.096 328.062 260.684 319.002 260.692Z" fill="#440083"/>
<path d="M296.634 187.177L284.471 172.733C284.125 172.322 283.874 171.843 283.736 171.33C283.598 170.817 283.576 170.28 283.671 169.758C283.766 169.236 283.976 168.739 284.287 168.303C284.598 167.866 285.002 167.499 285.472 167.228L301.948 157.713C304.128 156.009 306.916 155.212 309.701 155.497C312.486 155.782 315.041 157.125 316.806 159.233C318.57 161.341 319.4 164.041 319.113 166.741C318.826 169.441 317.446 171.921 315.276 173.636L302.399 187.33C302.031 187.722 301.579 188.033 301.075 188.24C300.572 188.448 300.028 188.548 299.48 188.533C298.933 188.519 298.396 188.39 297.905 188.156C297.413 187.922 296.98 187.588 296.634 187.177Z" fill="#440083"/>
<path d="M334.895 185.364C334.395 185.148 333.95 184.829 333.589 184.43C333.228 184.032 332.96 183.562 332.803 183.054L327.328 165.303C326.139 162.845 326.005 160.03 326.955 157.477C327.904 154.923 329.86 152.838 332.394 151.68C334.927 150.522 337.831 150.385 340.468 151.299C343.106 152.214 345.261 154.104 346.462 156.556L357.051 172.054C357.353 172.496 357.553 172.997 357.638 173.521C357.723 174.045 357.69 174.58 357.542 175.091C357.394 175.602 357.134 176.075 356.779 176.48C356.425 176.884 355.985 177.21 355.49 177.435L338.067 185.339C337.571 185.564 337.031 185.683 336.484 185.687C335.936 185.692 335.394 185.582 334.895 185.364Z" fill="#440083"/>
<path d="M323.88 135.649L311.844 132.979C310.602 132.704 309.111 132.178 308.938 130.955C308.707 129.312 311.147 128.167 310.922 126.523C310.704 124.93 308.481 124.725 306.896 124.255C305.42 123.753 304.203 122.714 303.503 121.358C302.803 120.002 302.675 118.435 303.146 116.989C301.431 119.331 297.512 119.532 295.288 117.634C293.063 115.736 292.636 112.293 293.972 109.729C294.694 108.47 295.712 107.393 296.944 106.587C298.176 105.781 299.587 105.268 301.062 105.09C304.028 104.764 307.026 105.306 309.672 106.646C309.848 104.83 312.187 104.094 314.068 104.078C317.976 104.122 321.773 105.346 324.93 107.579C328.087 109.812 330.447 112.944 331.682 116.538C333.99 123.747 332.446 131.649 325.987 135.868L323.88 135.649Z" fill="#2F2E41"/>
<path d="M445.114 362H193.233C193.058 362 192.89 361.932 192.766 361.812C192.642 361.692 192.572 361.529 192.572 361.359C192.572 361.189 192.642 361.026 192.766 360.906C192.89 360.786 193.058 360.719 193.233 360.719H445.114C445.29 360.719 445.458 360.786 445.582 360.906C445.706 361.026 445.775 361.189 445.775 361.359C445.775 361.529 445.706 361.692 445.582 361.812C445.458 361.932 445.29 362 445.114 362Z" fill="#3F3D56"/>
</g>
<defs>
<clipPath id="clip0_79_913">
<rect width="564" height="362" fill="white"/>
</clipPath>
</defs>
</svg>
