<svg width="142" height="142" viewBox="0 0 142 142" fill="none" xmlns="http://www.w3.org/2000/svg">
<path d="M136.929 136.929H131.858C126.478 136.929 121.318 134.792 117.514 130.987C113.71 127.183 111.572 122.023 111.572 116.643C111.572 122.023 109.435 127.183 105.631 130.987C101.826 134.792 96.6667 136.929 91.2866 136.929C85.9064 136.929 80.7467 134.792 76.9424 130.987C73.1381 127.183 71.0008 122.023 71.0008 116.643C71.0008 122.023 68.8636 127.183 65.0593 130.987C61.255 134.792 56.0952 136.929 50.7151 136.929C45.335 136.929 40.1753 134.792 36.371 130.987C32.5666 127.183 30.4294 122.023 30.4294 116.643C30.4294 122.023 28.2922 127.183 24.4879 130.987C20.6836 134.792 15.5238 136.929 10.1437 136.929H5.07227" stroke="#6A14D1" stroke-width="5" stroke-linecap="round" stroke-linejoin="round"/>
<path d="M12 25.3572C12 19.9771 14.1372 14.8174 17.9415 11.0131C21.7459 7.20877 26.9056 5.07153 32.2857 5.07153C37.6658 5.07153 42.8256 7.20877 46.6299 11.0131C50.4342 14.8174 52.5714 19.9771 52.5714 25.3572V96.3572" stroke="#6A14D1" stroke-width="5" stroke-linecap="round" stroke-linejoin="round"/>
<path d="M83 5.07153C88.3801 5.07153 93.5399 7.20877 97.3442 11.0131C101.148 14.8174 103.286 19.9771 103.286 25.3572V96.3572" stroke="#6A14D1" stroke-width="5" stroke-linecap="round" stroke-linejoin="round"/>
<path d="M52.5723 45.6431H103.287" stroke="#6A14D1" stroke-width="5" stroke-linecap="round" stroke-linejoin="round"/>
<path d="M52.5723 76.0715H103.287" stroke="#6A14D1" stroke-width="5" stroke-linecap="round" stroke-linejoin="round"/>
</svg>
