<svg width="142" height="142" viewBox="0 0 142 142" fill="none" xmlns="http://www.w3.org/2000/svg">
<path d="M126.786 98.8928V93.8214C126.786 79.0261 120.909 64.8368 110.447 54.3749C99.9852 43.9131 85.7959 38.0356 71.0006 38.0356C56.2053 38.0356 42.016 43.9131 31.5541 54.3749C21.0923 64.8368 15.2148 79.0261 15.2148 93.8214V98.8928" stroke="#6A14D1" stroke-width="5" stroke-linecap="round" stroke-linejoin="round"/>
<path d="M136.929 98.8928H5.07227L8.31798 109.746C9.56521 113.94 12.1355 117.619 15.6453 120.233C19.155 122.847 23.416 124.256 27.7923 124.25H114.209C118.586 124.256 122.847 122.847 126.356 120.233C129.866 117.619 132.436 113.94 133.684 109.746L136.929 98.8928Z" stroke="#6A14D1" stroke-width="5" stroke-linecap="round" stroke-linejoin="round"/>
<path d="M71 38.0357V17.75" stroke="#6A14D1" stroke-width="5" stroke-linecap="round" stroke-linejoin="round"/>
</svg>
