<svg width="32" height="32" viewBox="0 0 32 32" fill="none" xmlns="http://www.w3.org/2000/svg">
<path d="M9.66602 9.33268H22.3327V6.66602C22.3327 3.99935 21.3327 2.66602 18.3327 2.66602H13.666C10.666 2.66602 9.66602 3.99935 9.66602 6.66602V9.33268Z" stroke="#444444" stroke-width="1.5" stroke-miterlimit="10" stroke-linecap="round" stroke-linejoin="round"/>
<path d="M21.3327 20V25.3333C21.3327 28 19.9993 29.3333 17.3327 29.3333H14.666C11.9993 29.3333 10.666 28 10.666 25.3333V20H21.3327Z" stroke="#444444" stroke-width="1.5" stroke-miterlimit="10" stroke-linecap="round" stroke-linejoin="round"/>
<path d="M28 13.334V20.0007C28 22.6673 26.6667 24.0007 24 24.0007H21.3333V20.0007H10.6667V24.0007H8C5.33333 24.0007 4 22.6673 4 20.0007V13.334C4 10.6673 5.33333 9.33398 8 9.33398H24C26.6667 9.33398 28 10.6673 28 13.334Z" stroke="#444444" stroke-width="1.5" stroke-miterlimit="10" stroke-linecap="round" stroke-linejoin="round"/>
<path d="M22.6673 20H21.054H9.33398" stroke="#444444" stroke-width="1.5" stroke-miterlimit="10" stroke-linecap="round" stroke-linejoin="round"/>
<path d="M9.33398 14.666H13.334" stroke="#444444" stroke-width="1.5" stroke-miterlimit="10" stroke-linecap="round" stroke-linejoin="round"/>
</svg>
