<svg width="48" height="48" viewBox="0 0 48 48" fill="none" xmlns="http://www.w3.org/2000/svg">
<rect width="48" height="48" rx="8" fill="#6A14D1"/>
<path d="M40.203 30.637C39.6381 29.7747 37.9152 28.9448 36.5736 29.0749C36.5736 29.0098 36.5736 28.9068 36.5736 28.8417C36.5736 28.2776 35.7968 28.142 35.366 28.3752C35.3237 28.3427 35.2813 28.3102 35.2389 28.2776C31.1364 26.5854 26.2924 26.184 21.7096 26.1189C18.299 26.0538 11.4708 25.9182 8.8723 28.0769C8.61104 27.9793 8.35683 27.8437 8.09557 27.7461C7.66483 27.5454 7.1423 28.0118 7.40357 28.2776C7.3612 28.3102 7.3612 28.3752 7.3612 28.4458C6.93047 34.8187 13.455 39.2987 21.3636 39.7977C26.3771 40.096 30.7409 38.5014 33.5089 35.7787C34.0244 36.7766 35.7544 36.7062 36.8771 36.3427C38.3035 35.8763 39.4686 34.9488 40.1182 33.8858C40.7679 32.8607 40.895 31.6675 40.203 30.637ZM13.9776 27.8817C16.1807 27.5183 18.4685 27.4153 20.721 27.3827C24.6965 27.3176 29.0604 27.5834 32.824 28.7766C26.3418 30.7997 17.2257 30.8322 10.6094 28.679C11.7674 28.4458 12.8478 28.0824 13.9776 27.8817ZM21.9285 38.4743C14.5848 38.4418 9.3101 34.195 8.3992 28.8146C15.531 32.4973 27.4575 32.2316 34.8929 29.4763C33.9397 34.8187 29.3146 38.5394 21.9285 38.4743ZM38.5648 33.4248C38.0917 34.157 37.3573 34.7862 36.4464 35.182C35.4931 35.6159 34.674 35.2797 33.7208 35.4803C35.1471 33.9888 36.1004 32.1935 36.397 30.203C37.2161 30.5013 38.1693 30.5339 38.7272 31.2335C39.2991 31.9333 38.9955 32.7956 38.5648 33.4248Z" fill="#FAFAFA"/>
<path d="M14.5001 23.6756C13.7293 23.1323 13.2033 22.6204 13.2033 21.1838C13.2033 20.2905 13.3654 19.4233 13.425 18.5614C13.5275 16.9628 12.7964 15.4897 11.7245 15.7822C11.44 15.8449 11.44 16.4875 11.6451 16.7069C12.1711 17.2188 12.6574 17.1875 12.6574 18.3681C12.6574 19.23 12.4953 20.1286 12.4556 20.9905C12.3762 22.8764 13.1835 24.1249 14.3182 24.4122C14.563 24.475 14.7648 23.869 14.5001 23.6756Z" fill="#FAFAFA"/>
<path d="M23.3552 19.5623C23.7341 18.8408 24 18.1246 24 17.1733C23.9781 14.2284 20.6997 12.9564 22.5721 10.0757C22.9509 9.48783 22.3499 8.60598 21.9492 9.19388C21.3044 10.0757 20.5904 11.321 20.9911 12.6946C21.5048 14.3941 23.3771 15.6715 23.0638 17.7986C22.8635 19.2042 21.4793 20.1555 21.5485 21.6894C21.5922 23.063 22.4409 23.4531 23.286 23.4531C23.4208 23.4531 23.4645 23.1912 23.3516 23.095C22.0366 21.8818 22.5721 21.0642 23.3552 19.5623Z" fill="#FAFAFA"/>
<path d="M34.671 12.055C33.6976 13.2019 33.2006 14.4166 33.6976 16.0745C33.9216 16.8096 34.6467 18.1807 33.9216 18.8845C33.4735 19.3328 32.7485 19.4267 32.2272 19.5883C31.6528 19.7812 30.4838 20.0367 30.2843 20.9594C30.0602 22.1376 30.9808 22.9718 31.7058 23.4149C31.9543 23.5765 32.2027 23.1908 32.0031 22.904C31.828 22.6486 30.7812 21.5016 31.2537 21.1471C31.604 20.8604 32.0765 20.7978 32.4756 20.6675C33.1722 20.4433 33.9705 20.3182 34.5692 19.7447C35.0947 19.2651 35.2657 18.1494 35.1435 17.383C34.7932 15.4697 33.9705 14.6408 35.3431 12.8526C35.7178 12.3417 35.0947 11.544 34.671 12.055Z" fill="#FAFAFA"/>
</svg>
