<svg width="26" height="26" viewBox="0 0 26 26" fill="none" xmlns="http://www.w3.org/2000/svg">
<path d="M2.84615 4.69141C2.35652 4.69141 1.88695 4.8859 1.54073 5.2321C1.1945 5.57829 1 6.04784 1 6.53744V23.1517C1 23.6413 1.1945 24.1108 1.54073 24.457C1.88695 24.8032 2.35652 24.9977 2.84615 24.9977H23.1538C23.6435 24.9977 24.1131 24.8032 24.4593 24.457C24.8055 24.1108 25 23.6413 25 23.1517V6.53744C25 6.04784 24.8055 5.57829 24.4593 5.2321C24.1131 4.8859 23.6435 4.69141 23.1538 4.69141H19.4615" stroke="#6A14D1" stroke-width="1.5" stroke-linecap="round" stroke-linejoin="round"/>
<path d="M6.53806 1V8.38412" stroke="#6A14D1" stroke-width="1.5" stroke-linecap="round" stroke-linejoin="round"/>
<path d="M19.4612 1V8.38412" stroke="#6A14D1" stroke-width="1.5" stroke-linecap="round" stroke-linejoin="round"/>
<path d="M6.53809 4.69141H15.7689" stroke="#6A14D1" stroke-width="1.5" stroke-linecap="round" stroke-linejoin="round"/>
<path d="M6.54026 14.8382C7.05007 14.8382 7.46334 14.425 7.46334 13.9152C7.46334 13.4054 7.05007 12.9922 6.54026 12.9922C6.03046 12.9922 5.61719 13.4054 5.61719 13.9152C5.61719 14.425 6.03046 14.8382 6.54026 14.8382Z" stroke="#6A14D1" stroke-width="1.5" stroke-linecap="round" stroke-linejoin="round"/>
<path d="M13.0022 14.8382C13.512 14.8382 13.9253 14.425 13.9253 13.9152C13.9253 13.4054 13.512 12.9922 13.0022 12.9922C12.4924 12.9922 12.0791 13.4054 12.0791 13.9152C12.0791 14.425 12.4924 14.8382 13.0022 14.8382Z" stroke="#6A14D1" stroke-width="1.5" stroke-linecap="round" stroke-linejoin="round"/>
<path d="M19.4612 14.8382C19.971 14.8382 20.3842 14.425 20.3842 13.9152C20.3842 13.4054 19.971 12.9922 19.4612 12.9922C18.9514 12.9922 18.5381 13.4054 18.5381 13.9152C18.5381 14.425 18.9514 14.8382 19.4612 14.8382Z" stroke="#6A14D1" stroke-width="1.5" stroke-linecap="round" stroke-linejoin="round"/>
<path d="M6.54026 20.3812C7.05007 20.3812 7.46334 19.9679 7.46334 19.4582C7.46334 18.9484 7.05007 18.5352 6.54026 18.5352C6.03046 18.5352 5.61719 18.9484 5.61719 19.4582C5.61719 19.9679 6.03046 20.3812 6.54026 20.3812Z" stroke="#6A14D1" stroke-width="1.5" stroke-linecap="round" stroke-linejoin="round"/>
</svg>
