<svg width="24" height="24" viewBox="0 0 24 24" fill="none" xmlns="http://www.w3.org/2000/svg">
<g clip-path="url(#clip0_3274_38030)">
<path d="M5.14258 11.9994V7.49084C5.15597 6.60461 5.3441 5.72973 5.69619 4.91633C6.04828 4.10293 6.55741 3.367 7.1944 2.7507C7.8314 2.13441 8.58375 1.64986 9.40833 1.32483C10.2329 0.999794 11.1135 0.840663 11.9997 0.856551V0.856551C12.8859 0.840663 13.7665 0.999794 14.5911 1.32483C15.4157 1.64986 16.168 2.13441 16.805 2.7507C17.442 3.367 17.9512 4.10293 18.3033 4.91633C18.6553 5.72973 18.8435 6.60461 18.8569 7.49084V11.9994" stroke="#444444" stroke-width="1.5" stroke-linecap="round" stroke-linejoin="round"/>
<path d="M2.57171 9.42969H4.28599C4.51332 9.42969 4.73134 9.51999 4.89208 9.68074C5.05283 9.84148 5.14314 10.0595 5.14314 10.2868V15.4297C5.14314 15.657 5.05283 15.875 4.89208 16.0358C4.73134 16.1965 4.51332 16.2868 4.28599 16.2868H2.57171C2.11705 16.2868 1.68102 16.1062 1.35952 15.7847C1.03803 15.4632 0.857422 15.0272 0.857422 14.5725V11.144C0.857422 10.6893 1.03803 10.2533 1.35952 9.93179C1.68102 9.6103 2.11705 9.42969 2.57171 9.42969V9.42969Z" stroke="#444444" stroke-width="1.5" stroke-linecap="round" stroke-linejoin="round"/>
<path d="M21.4283 16.2852H19.714C19.4867 16.2852 19.2687 16.1949 19.1079 16.0341C18.9472 15.8734 18.8569 15.6553 18.8569 15.428V10.2852C18.8569 10.0578 18.9472 9.83981 19.1079 9.67906C19.2687 9.51832 19.4867 9.42801 19.714 9.42801H21.4283C21.8829 9.42801 22.319 9.60863 22.6405 9.93012C22.962 10.2516 23.1426 10.6876 23.1426 11.1423V14.5709C23.1426 15.0255 22.962 15.4616 22.6405 15.7831C22.319 16.1045 21.8829 16.2852 21.4283 16.2852V16.2852Z" stroke="#444444" stroke-width="1.5" stroke-linecap="round" stroke-linejoin="round"/>
<path d="M15.4297 21.0006C16.339 21.0006 17.2111 20.6393 17.8541 19.9964C18.497 19.3534 18.8583 18.4813 18.8583 17.572V13.7148" stroke="#444444" stroke-width="1.5" stroke-linecap="round" stroke-linejoin="round"/>
<path d="M15.4294 20.9983C15.4294 21.5666 15.2036 22.1117 14.8018 22.5136C14.3999 22.9154 13.8549 23.1412 13.2866 23.1412H10.7151C10.1468 23.1412 9.60176 22.9154 9.19989 22.5136C8.79803 22.1117 8.57227 21.5666 8.57227 20.9983C8.57227 20.43 8.79803 19.885 9.19989 19.4831C9.60176 19.0812 10.1468 18.8555 10.7151 18.8555H13.2866C13.8549 18.8555 14.3999 19.0812 14.8018 19.4831C15.2036 19.885 15.4294 20.43 15.4294 20.9983Z" stroke="#444444" stroke-width="1.5" stroke-linecap="round" stroke-linejoin="round"/>
</g>
<defs>
<clipPath id="clip0_3274_38030">
<rect width="24" height="24" fill="white"/>
</clipPath>
</defs>
</svg>
