<svg width="32" height="32" viewBox="0 0 32 32" fill="none" xmlns="http://www.w3.org/2000/svg">
<path d="M16.0268 3.88086C11.6135 3.88086 8.02678 7.46753 8.02678 11.8809V15.7342C8.02678 16.5475 7.68012 17.7875 7.26678 18.4809L5.73345 21.0275C4.78678 22.6009 5.44012 24.3475 7.17345 24.9342C12.9201 26.8542 19.1201 26.8542 24.8668 24.9342C26.4801 24.4009 27.1868 22.4942 26.3068 21.0275L24.7734 18.4809C24.3734 17.7875 24.0268 16.5475 24.0268 15.7342V11.8809C24.0268 7.48086 20.4268 3.88086 16.0268 3.88086Z" stroke="#6A14D1" stroke-width="1.5" stroke-miterlimit="10" stroke-linecap="round"/>
<path d="M18.4934 4.26789C18.0801 4.14789 17.6534 4.05456 17.2134 4.00122C15.9334 3.84122 14.7067 3.93456 13.5601 4.26789C13.9467 3.28122 14.9067 2.58789 16.0267 2.58789C17.1467 2.58789 18.1067 3.28122 18.4934 4.26789Z" stroke="#6A14D1" stroke-width="1.5" stroke-miterlimit="10" stroke-linecap="round" stroke-linejoin="round"/>
<path d="M20.0269 25.4121C20.0269 27.6121 18.2269 29.4121 16.0269 29.4121C14.9335 29.4121 13.9202 28.9588 13.2002 28.2388C12.4802 27.5188 12.0269 26.5054 12.0269 25.4121" stroke="#6A14D1" stroke-width="1.5" stroke-miterlimit="10"/>
</svg>
