<svg width="32" height="32" viewBox="0 0 32 32" fill="none" xmlns="http://www.w3.org/2000/svg">
<path d="M21.7143 3.42773H25.1429C25.7491 3.42773 26.3305 3.66855 26.7591 4.0972C27.1878 4.52586 27.4286 5.10724 27.4286 5.71345V28.5706C27.4286 29.1768 27.1878 29.7582 26.7591 30.1868C26.3305 30.6155 25.7491 30.8563 25.1429 30.8563H6.85716C6.25095 30.8563 5.66957 30.6155 5.24091 30.1868C4.81226 29.7582 4.57144 29.1768 4.57144 28.5706V5.71345C4.57144 5.10724 4.81226 4.52586 5.24091 4.0972C5.66957 3.66855 6.25095 3.42773 6.85716 3.42773H10.2857" stroke="#6A14D1" stroke-linecap="round" stroke-linejoin="round"/>
<path d="M19.4286 1.14258H12.5715C11.3091 1.14258 10.2857 2.16593 10.2857 3.42829V4.57115C10.2857 5.83351 11.3091 6.85686 12.5715 6.85686H19.4286C20.691 6.85686 21.7143 5.83351 21.7143 4.57115V3.42829C21.7143 2.16593 20.691 1.14258 19.4286 1.14258Z" stroke="#6A14D1" stroke-linecap="round" stroke-linejoin="round"/>
<path d="M10.2857 12.5703H21.7143" stroke="#6A14D1" stroke-linecap="round" stroke-linejoin="round"/>
<path d="M10.2857 18.2852H21.7143" stroke="#6A14D1" stroke-linecap="round" stroke-linejoin="round"/>
<path d="M10.2857 24H21.7143" stroke="#6A14D1" stroke-linecap="round" stroke-linejoin="round"/>
</svg>
