<svg width="32" height="32" viewBox="0 0 32 32" fill="none" xmlns="http://www.w3.org/2000/svg">
<path d="M29.3333 14.5327V5.46602C29.3333 3.46602 28.48 2.66602 26.36 2.66602H20.9733C18.8533 2.66602 18 3.46602 18 5.46602V14.5327C18 16.5327 18.8533 17.3327 20.9733 17.3327H26.36C28.48 17.3327 29.3333 16.5327 29.3333 14.5327Z" fill="#6A14D1" stroke="#6A14D1" stroke-width="1.5" stroke-linecap="round" stroke-linejoin="round"/>
<path d="M29.3333 26.534V24.134C29.3333 22.134 28.48 21.334 26.36 21.334H20.9733C18.8533 21.334 18 22.134 18 24.134V26.534C18 28.534 18.8533 29.334 20.9733 29.334H26.36C28.48 29.334 29.3333 28.534 29.3333 26.534Z" fill="#6A14D1" stroke="#6A14D1" stroke-width="1.5" stroke-linecap="round" stroke-linejoin="round"/>
<path d="M13.9993 17.466V26.5327C13.9993 28.5327 13.146 29.3327 11.026 29.3327H5.63935C3.51935 29.3327 2.66602 28.5327 2.66602 26.5327V17.466C2.66602 15.466 3.51935 14.666 5.63935 14.666H11.026C13.146 14.666 13.9993 15.466 13.9993 17.466Z" fill="#6A14D1" stroke="#6A14D1" stroke-width="1.5" stroke-linecap="round" stroke-linejoin="round"/>
<path d="M13.9993 5.46602V7.86602C13.9993 9.86602 13.146 10.666 11.026 10.666H5.63935C3.51935 10.666 2.66602 9.86602 2.66602 7.86602V5.46602C2.66602 3.46602 3.51935 2.66602 5.63935 2.66602H11.026C13.146 2.66602 13.9993 3.46602 13.9993 5.46602Z" fill="#6A14D1" stroke="#6A14D1" stroke-width="1.5" stroke-linecap="round" stroke-linejoin="round"/>
</svg>
