<svg width="32" height="32" viewBox="0 0 32 32" fill="none" xmlns="http://www.w3.org/2000/svg">
<path d="M24.1873 28.825C23.014 29.1717 21.6273 29.3317 20.0006 29.3317H12.0006C10.374 29.3317 8.9873 29.1717 7.81396 28.825C8.1073 25.3584 11.6673 22.625 16.0006 22.625C20.334 22.625 23.894 25.3584 24.1873 28.825Z" stroke="#6A14D1" stroke-width="1.5" stroke-linecap="round" stroke-linejoin="round"/>
<path d="M19.9998 2.66602H11.9998C5.33317 2.66602 2.6665 5.33268 2.6665 11.9993V19.9993C2.6665 25.0393 4.1865 27.7993 7.81317 28.826C8.1065 25.3593 11.6665 22.626 15.9998 22.626C20.3332 22.626 23.8932 25.3593 24.1865 28.826C27.8132 27.7993 29.3332 25.0393 29.3332 19.9993V11.9993C29.3332 5.33268 26.6665 2.66602 19.9998 2.66602ZM15.9998 18.8927C13.3598 18.8927 11.2265 16.746 11.2265 14.106C11.2265 11.466 13.3598 9.33268 15.9998 9.33268C18.6398 9.33268 20.7732 11.466 20.7732 14.106C20.7732 16.746 18.6398 18.8927 15.9998 18.8927Z" stroke="#6A14D1" stroke-width="1.5" stroke-linecap="round" stroke-linejoin="round"/>
<path d="M20.7732 14.1073C20.7732 16.7473 18.6399 18.894 15.9999 18.894C13.3599 18.894 11.2266 16.7473 11.2266 14.1073C11.2266 11.4673 13.3599 9.33398 15.9999 9.33398C18.6399 9.33398 20.7732 11.4673 20.7732 14.1073Z" stroke="#6A14D1" stroke-width="1.5" stroke-linecap="round" stroke-linejoin="round"/>
</svg>
