<svg width="24" height="24" viewBox="0 0 24 24" fill="none" xmlns="http://www.w3.org/2000/svg">
<g clip-path="url(#clip0_3369_42343)">
<path d="M5.14282 11.9994V7.49084C5.15621 6.60461 5.34434 5.72973 5.69643 4.91633C6.04852 4.10293 6.55765 3.367 7.19465 2.7507C7.83165 2.13441 8.58399 1.64986 9.40857 1.32483C10.2332 0.999794 11.1138 0.840663 12 0.856551V0.856551C12.8862 0.840663 13.7668 0.999794 14.5914 1.32483C15.4159 1.64986 16.1683 2.13441 16.8053 2.7507C17.4423 3.367 17.9514 4.10293 18.3035 4.91633C18.6556 5.72973 18.8437 6.60461 18.8571 7.49084V11.9994" stroke="#6A14D1" stroke-width="1.5" stroke-linecap="round" stroke-linejoin="round"/>
<path d="M2.57146 9.42773H4.28575C4.51308 9.42773 4.73109 9.51804 4.89184 9.67879C5.05259 9.83953 5.14289 10.0575 5.14289 10.2849V15.4277C5.14289 15.6551 5.05259 15.8731 4.89184 16.0338C4.73109 16.1946 4.51308 16.2849 4.28575 16.2849H2.57146C2.11681 16.2849 1.68077 16.1043 1.35928 15.7828C1.03779 15.4613 0.857178 15.0252 0.857178 14.5706V11.142C0.857178 10.6874 1.03779 10.2513 1.35928 9.92984C1.68077 9.60835 2.11681 9.42773 2.57146 9.42773V9.42773Z" stroke="#6A14D1" stroke-width="1.5" stroke-linecap="round" stroke-linejoin="round"/>
<path d="M21.4285 16.2852H19.7143C19.4869 16.2852 19.2689 16.1949 19.1082 16.0341C18.9474 15.8734 18.8571 15.6553 18.8571 15.428V10.2852C18.8571 10.0578 18.9474 9.83981 19.1082 9.67906C19.2689 9.51832 19.4869 9.42801 19.7143 9.42801H21.4285C21.8832 9.42801 22.3192 9.60863 22.6407 9.93012C22.9622 10.2516 23.1428 10.6876 23.1428 11.1423V14.5709C23.1428 15.0255 22.9622 15.4616 22.6407 15.7831C22.3192 16.1045 21.8832 16.2852 21.4285 16.2852V16.2852Z" stroke="#6A14D1" stroke-width="1.5" stroke-linecap="round" stroke-linejoin="round"/>
<path d="M15.4287 20.9986C16.338 20.9986 17.2101 20.6374 17.8531 19.9944C18.4961 19.3514 18.8573 18.4793 18.8573 17.57V13.7129" stroke="#6A14D1" stroke-width="1.5" stroke-linecap="round" stroke-linejoin="round"/>
<path d="M15.4287 21.0003C15.4287 21.5686 15.2029 22.1136 14.801 22.5155C14.3992 22.9174 13.8541 23.1431 13.2858 23.1431H10.7144C10.1461 23.1431 9.60103 22.9174 9.19916 22.5155C8.7973 22.1136 8.57153 21.5686 8.57153 21.0003C8.57153 20.432 8.7973 19.8869 9.19916 19.4851C9.60103 19.0832 10.1461 18.8574 10.7144 18.8574H13.2858C13.8541 18.8574 14.3992 19.0832 14.801 19.4851C15.2029 19.8869 15.4287 20.432 15.4287 21.0003Z" stroke="#6A14D1" stroke-width="1.5" stroke-linecap="round" stroke-linejoin="round"/>
</g>
<defs>
<clipPath id="clip0_3369_42343">
<rect width="24" height="24" fill="white"/>
</clipPath>
</defs>
</svg>
