<svg width="32" height="32" viewBox="0 0 32 32" fill="none" xmlns="http://www.w3.org/2000/svg">
<path d="M10.6667 2.66602V6.66602" stroke="#6A14D1" stroke-width="1.5" stroke-miterlimit="10" stroke-linecap="round" stroke-linejoin="round"/>
<path d="M21.3333 2.66602V6.66602" stroke="#6A14D1" stroke-width="1.5" stroke-miterlimit="10" stroke-linecap="round" stroke-linejoin="round"/>
<path d="M4.66666 12.1191H27.3333" stroke="#6A14D1" stroke-width="1.5" stroke-miterlimit="10" stroke-linecap="round" stroke-linejoin="round"/>
<path d="M29.333 25.3333C29.333 26.3333 29.053 27.28 28.5597 28.08C27.6397 29.6267 25.9464 30.6667 23.9997 30.6667C22.653 30.6667 21.4264 30.1733 20.493 29.3333C20.0797 28.9867 19.7197 28.56 19.4397 28.08C18.9464 27.28 18.6664 26.3333 18.6664 25.3333C18.6664 22.3867 21.053 20 23.9997 20C25.5997 20 27.0264 20.7066 27.9997 21.8133C28.8264 22.76 29.333 23.9867 29.333 25.3333Z" stroke="#6A14D1" stroke-width="1.5" stroke-miterlimit="10" stroke-linecap="round" stroke-linejoin="round"/>
<path d="M21.9203 25.3321L23.2403 26.6521L26.0803 24.0254" stroke="#6A14D1" stroke-width="1.5" stroke-linecap="round" stroke-linejoin="round"/>
<path d="M28 11.3327V21.8127C27.0267 20.706 25.6 19.9993 24 19.9993C21.0533 19.9993 18.6667 22.386 18.6667 25.3327C18.6667 26.3327 18.9467 27.2793 19.44 28.0793C19.72 28.5593 20.08 28.986 20.4933 29.3327H10.6667C6 29.3327 4 26.666 4 22.666V11.3327C4 7.33268 6 4.66602 10.6667 4.66602H21.3333C26 4.66602 28 7.33268 28 11.3327Z" stroke="#6A14D1" stroke-width="1.5" stroke-miterlimit="10" stroke-linecap="round" stroke-linejoin="round"/>
<path d="M15.994 18.2663H16.0059" stroke="#6A14D1" stroke-width="2" stroke-linecap="round" stroke-linejoin="round"/>
<path d="M11.0591 18.2663H11.0711" stroke="#6A14D1" stroke-width="2" stroke-linecap="round" stroke-linejoin="round"/>
<path d="M11.0591 22.2663H11.0711" stroke="#6A14D1" stroke-width="2" stroke-linecap="round" stroke-linejoin="round"/>
</svg>
