<svg width="32" height="32" viewBox="0 0 32 32" fill="none" xmlns="http://www.w3.org/2000/svg">
<g clip-path="url(#clip0_3381_69218)">
<path d="M6.85742 15.9992V9.98778C6.87527 8.80614 7.12611 7.63963 7.59557 6.5551C8.06502 5.47057 8.74386 4.48933 9.59319 3.6676C10.4425 2.84587 11.4456 2.19981 12.5451 1.76644C13.6445 1.33306 14.8187 1.12088 16.0003 1.14207V1.14207C17.1819 1.12088 18.356 1.33306 19.4555 1.76644C20.5549 2.19981 21.558 2.84587 22.4074 3.6676C23.2567 4.48933 23.9355 5.47057 24.405 6.5551C24.8744 7.63963 25.1253 8.80614 25.1431 9.98778V15.9992" stroke="#6A14D1" stroke-width="1.5" stroke-linecap="round" stroke-linejoin="round"/>
<path d="M3.42878 12.5703H5.71449C6.0176 12.5703 6.30829 12.6907 6.52262 12.905C6.73694 13.1194 6.85735 13.4101 6.85735 13.7132V20.5703C6.85735 20.8734 6.73694 21.1641 6.52262 21.3784C6.30829 21.5928 6.0176 21.7132 5.71449 21.7132H3.42878C2.82257 21.7132 2.24119 21.4724 1.81254 21.0437C1.38388 20.615 1.14307 20.0337 1.14307 19.4275V14.856C1.14307 14.2498 1.38388 13.6684 1.81254 13.2398C2.24119 12.8111 2.82257 12.5703 3.42878 12.5703V12.5703Z" stroke="#6A14D1" stroke-width="1.5" stroke-linecap="round" stroke-linejoin="round"/>
<path d="M28.5717 21.7129H26.286C25.9829 21.7129 25.6922 21.5925 25.4779 21.3782C25.2635 21.1638 25.1431 20.8731 25.1431 20.57V13.7129C25.1431 13.4098 25.2635 13.1191 25.4779 12.9048C25.6922 12.6904 25.9829 12.57 26.286 12.57H28.5717C29.1779 12.57 29.7593 12.8109 30.188 13.2395C30.6166 13.6682 30.8574 14.2495 30.8574 14.8557V19.4272C30.8574 20.0334 30.6166 20.6148 30.188 21.0434C29.7593 21.4721 29.1779 21.7129 28.5717 21.7129V21.7129Z" stroke="#6A14D1" stroke-width="1.5" stroke-linecap="round" stroke-linejoin="round"/>
<path d="M20.5718 27.9994C21.7842 27.9994 22.947 27.5178 23.8043 26.6605C24.6616 25.8032 25.1432 24.6404 25.1432 23.428V18.2852" stroke="#6A14D1" stroke-width="1.5" stroke-linecap="round" stroke-linejoin="round"/>
<path d="M20.5716 27.9997C20.5716 28.7575 20.2705 29.4842 19.7347 30.02C19.1989 30.5558 18.4722 30.8569 17.7144 30.8569H14.2859C13.5281 30.8569 12.8014 30.5558 12.2655 30.02C11.7297 29.4842 11.4287 28.7575 11.4287 27.9997C11.4287 27.242 11.7297 26.5152 12.2655 25.9794C12.8014 25.4436 13.5281 25.1426 14.2859 25.1426H17.7144C18.4722 25.1426 19.1989 25.4436 19.7347 25.9794C20.2705 26.5152 20.5716 27.242 20.5716 27.9997Z" stroke="#6A14D1" stroke-width="1.5" stroke-linecap="round" stroke-linejoin="round"/>
</g>
<defs>
<clipPath id="clip0_3381_69218">
<rect width="32" height="32" fill="white"/>
</clipPath>
</defs>
</svg>
