<svg width="32" height="32" viewBox="0 0 32 32" fill="none" xmlns="http://www.w3.org/2000/svg">
<path d="M22.666 24.5736H17.3327L11.3993 28.5203C10.5193 29.1069 9.33268 28.4803 9.33268 27.4137V24.5736C5.33268 24.5736 2.66602 21.907 2.66602 17.907V9.9069C2.66602 5.9069 5.33268 3.24023 9.33268 3.24023H22.666C26.666 3.24023 29.3327 5.9069 29.3327 9.9069V17.907C29.3327 21.907 26.666 24.5736 22.666 24.5736Z" stroke="#6A14D1" stroke-width="1.5" stroke-miterlimit="10" stroke-linecap="round" stroke-linejoin="round"/>
<path d="M16.0004 15.1465V14.8665C16.0004 13.9599 16.5604 13.4798 17.1204 13.0932C17.6671 12.7198 18.2137 12.2399 18.2137 11.3599C18.2137 10.1332 17.2271 9.14648 16.0004 9.14648C14.7737 9.14648 13.7871 10.1332 13.7871 11.3599" stroke="#6A14D1" stroke-width="1.5" stroke-linecap="round" stroke-linejoin="round"/>
<path d="M15.9947 18.3327H16.0067" stroke="#6A14D1" stroke-width="1.5" stroke-linecap="round" stroke-linejoin="round"/>
</svg>
