<svg width="192" height="229" viewBox="0 0 192 229" fill="none" xmlns="http://www.w3.org/2000/svg">
<g clip-path="url(#clip0_243_5432)">
<path d="M1.37215 109.527C2.07762 110.694 3.03284 111.693 4.17053 112.454C5.30821 113.216 6.60069 113.721 7.95692 113.934C9.31315 114.148 10.7001 114.064 12.0202 113.689C13.3402 113.315 14.5613 112.658 15.5972 111.765L44.5536 128.207L43.4744 111.067L16.1424 98.0817C14.5127 96.458 12.338 95.4827 10.0305 95.3404C7.7229 95.1981 5.44278 95.8987 3.62216 97.3095C1.80153 98.7204 0.566894 100.743 0.152204 102.995C-0.262487 105.247 0.171578 107.571 1.37215 109.527Z" fill="#FFB8B8"/>
<path d="M85.2043 175.392C76.6149 187.294 76.9222 207.206 79.3186 228.999H119.93L121.695 224.92L124.05 228.999H162.306C162.306 228.999 159.364 173.644 154.066 171.896C148.769 170.148 85.2043 175.392 85.2043 175.392Z" fill="#2F2E41"/>
<path d="M119.93 51.0421C131.307 51.0421 140.53 41.9113 140.53 30.648C140.53 19.3847 131.307 10.2539 119.93 10.2539C108.553 10.2539 99.3301 19.3847 99.3301 30.648C99.3301 41.9113 108.553 51.0421 119.93 51.0421Z" fill="#FFB8B8"/>
<path d="M134.819 56.334L138.847 63.978L166.71 76.2748L159.386 146.445L156.303 153.712L157.969 160.022L153.953 164.679C157.984 168.29 158.496 172.069 156.303 175.979L143.472 178.889C143.472 178.889 72.1291 185.17 78.1417 174.227C84.7112 162.272 86.3841 126.963 71.8812 108.094C59.5686 92.0755 69.0215 71.2896 69.0215 71.2896L98.2274 62.6486L108.97 56.334L134.819 56.334Z" fill="#B6B6B6" fill-opacity="0.5"/>
<path d="M129.075 0.774411C129.172 0.57164 129.328 0.402142 129.522 0.287686C129.717 0.173229 129.942 0.119038 130.168 0.132075C120.737 -0.426424 110.804 0.661805 102.914 5.80701C101.002 7.05353 99.2 8.54033 97.1199 9.44457C97.0218 9.48825 96.9367 9.55632 96.8729 9.64217C96.8092 9.72802 96.7689 9.82873 96.7561 9.93452C96.7433 10.0403 96.7583 10.1476 96.7997 10.2459C96.8411 10.3443 96.9075 10.4304 96.9925 10.4958L97.2209 10.6732C97.3111 10.7431 97.3801 10.8362 97.4205 10.9424C97.4609 11.0485 97.4712 11.1635 97.4502 11.275C97.4291 11.3865 97.3776 11.4901 97.3013 11.5746C97.2249 11.6592 97.1266 11.7213 97.017 11.7544C96.9028 11.7889 96.8009 11.8549 96.7234 11.9448C96.6458 12.0347 96.5958 12.1447 96.5793 12.2617C96.5627 12.3788 96.5804 12.4981 96.63 12.6056C96.6797 12.7131 96.7594 12.8043 96.8597 12.8685L98.6104 13.9887C98.6986 14.0442 98.7713 14.1206 98.8219 14.2111C98.8724 14.3016 98.8992 14.4032 98.8998 14.5066C98.9004 14.61 98.8747 14.7119 98.8251 14.8029C98.7756 14.894 98.7037 14.9712 98.6162 15.0276C98.4679 15.1182 98.3121 15.1964 98.1506 15.2613C98.0501 15.2986 97.961 15.361 97.8919 15.4424C97.8228 15.5238 97.7761 15.6214 97.7562 15.7258C97.7363 15.8303 97.7439 15.938 97.7783 16.0387C97.8127 16.1394 97.8727 16.2296 97.9525 16.3007C98.7107 16.9689 99.2922 17.8106 99.6464 18.7523C100.23 20.2544 100.335 21.8904 100.433 23.4968C101.036 21.1789 103.592 19.8145 106.005 19.6758C108.419 19.5372 110.773 20.3256 113.122 20.8924C118.238 22.1232 123.551 22.3256 128.748 21.4875C126.983 24.9934 128.472 29.1751 129.97 32.8005L134.818 30.7431C141.477 27.0219 136.839 42.7634 134.349 44.9244C139.432 46.669 152.736 27.3054 148.457 19.9604C146.23 16.1396 147.811 11.2116 143.433 7.58789C141.288 5.35214 137.005 6.34586 134.818 4.48768C133.957 3.75633 135.269 1.79972 134.087 1.37331C133.694 1.23168 129.14 0.631668 129.075 0.774411Z" fill="#2F2E41"/>
<path d="M94.1818 64.623C90.4018 81.2371 80.7068 120.029 70.8708 128.141C70.247 128.724 69.4991 129.162 68.682 129.421C34.1084 137.759 23.0303 116.489 23.0303 116.489C23.0303 116.489 32.2956 112.019 32.5306 103.282L51.2156 109.021L67.5037 72.7323L69.9006 70.5189L69.9141 70.5056L94.1818 64.623Z" fill="#3F3D56"/>
<path d="M167.898 218.045C168.888 217.103 169.658 215.958 170.152 214.689C170.647 213.421 170.854 212.061 170.76 210.704C170.666 209.348 170.273 208.029 169.608 206.839C168.943 205.649 168.023 204.619 166.912 203.819L176.604 172.195L159.974 177.08L153.32 206.361C152.087 208.298 151.615 210.615 151.992 212.873C152.369 215.131 153.57 217.174 155.367 218.614C157.164 220.054 159.432 220.792 161.742 220.687C164.052 220.582 166.242 219.642 167.898 218.045Z" fill="#FFB8B8"/>
<path d="M159.028 74.5059L166.71 76.275C166.71 76.275 198.462 137.436 190.81 149.09C183.159 160.744 173.786 199.326 173.786 199.326C173.786 199.326 159.922 196.598 154.625 189.605L164.325 143.846L154.319 105.388L159.028 74.5059Z" fill="#B6B6B6" fill-opacity="0.5"/>
<path d="M13.2871 165.327L13.563 66.8233C13.5708 64.8296 14.3772 62.9204 15.8051 61.5145C17.2331 60.1087 19.166 59.321 21.1798 59.3242L96.3225 59.5305C98.3363 59.5383 100.265 60.3366 101.685 61.7502C103.105 63.1639 103.9 65.0775 103.897 67.0713L103.621 165.575C103.613 167.569 102.807 169.478 101.379 170.884C99.9513 172.29 98.0184 173.078 96.0045 173.074L20.8618 172.868C18.848 172.86 16.9195 172.062 15.4995 170.648C14.0795 169.235 13.2838 167.321 13.2871 165.327Z" fill="#E6E6E6"/>
<path d="M19.1338 135.591L19.3112 72.2634C19.3185 70.3962 20.0737 68.6081 21.411 67.2915C22.7483 65.9748 24.5585 65.2371 26.4446 65.2402L91.0234 65.4175C92.9094 65.4247 94.7156 66.1723 96.0456 67.4963C97.3756 68.8202 98.1208 70.6124 98.1177 72.4797L97.8722 160.135C97.8648 162.002 97.1096 163.79 95.7722 165.107C94.4348 166.423 92.6246 167.161 90.7385 167.158L50.7332 167.048C42.3322 167.016 34.2873 163.686 28.3633 157.788C22.4393 151.891 19.1201 143.908 19.1338 135.591Z" fill="white"/>
<path d="M83.6243 93.0584H33.2693C32.468 93.0584 31.6996 92.7433 31.133 92.1824C30.5664 91.6214 30.248 90.8606 30.248 90.0673C30.248 89.274 30.5664 88.5132 31.133 87.9523C31.6996 87.3913 32.468 87.0762 33.2693 87.0762H83.6243C84.4256 87.0762 85.194 87.3913 85.7606 87.9523C86.3272 88.5132 86.6456 89.274 86.6456 90.0673C86.6456 90.8606 86.3272 91.6214 85.7606 92.1824C85.194 92.7433 84.4256 93.0584 83.6243 93.0584Z" fill="#6C63FF"/>
<path d="M44.3474 79.2655H33.2693C32.468 79.2655 31.6996 78.9503 31.133 78.3894C30.5664 77.8284 30.248 77.0676 30.248 76.2743C30.248 75.481 30.5664 74.7202 31.133 74.1593C31.6996 73.5983 32.468 73.2832 33.2693 73.2832H44.3474C45.1487 73.2832 45.9172 73.5983 46.4838 74.1593C47.0504 74.7202 47.3687 75.481 47.3687 76.2743C47.3687 77.0676 47.0504 77.8284 46.4838 78.3894C45.9172 78.9503 45.1487 79.2655 44.3474 79.2655Z" fill="#6C63FF"/>
<path d="M83.6243 106.851H33.2693C32.468 106.851 31.6996 106.536 31.133 105.975C30.5664 105.414 30.248 104.654 30.248 103.86C30.248 103.067 30.5664 102.306 31.133 101.745C31.6996 101.184 32.468 100.869 33.2693 100.869H83.6243C84.4256 100.869 85.194 101.184 85.7606 101.745C86.3272 102.306 86.6456 103.067 86.6456 103.86C86.6456 104.654 86.3272 105.414 85.7606 105.975C85.194 106.536 84.4256 106.851 83.6243 106.851Z" fill="#6C63FF"/>
<path d="M83.6243 120.642H33.2693C32.468 120.642 31.6996 120.327 31.133 119.766C30.5664 119.205 30.248 118.445 30.248 117.651C30.248 116.858 30.5664 116.097 31.133 115.536C31.6996 114.975 32.468 114.66 33.2693 114.66H83.6243C84.4256 114.66 85.194 114.975 85.7606 115.536C86.3272 116.097 86.6456 116.858 86.6456 117.651C86.6456 118.445 86.3272 119.205 85.7606 119.766C85.194 120.327 84.4256 120.642 83.6243 120.642Z" fill="#6C63FF"/>
<path d="M79.5491 156.985C86.1885 156.985 91.5708 151.656 91.5708 145.083C91.5708 138.51 86.1885 133.182 79.5491 133.182C72.9097 133.182 67.5273 138.51 67.5273 145.083C67.5273 151.656 72.9097 156.985 79.5491 156.985Z" fill="#6C63FF"/>
<path d="M77.9098 151.279C77.7022 151.279 77.4975 151.231 77.3118 151.139C77.1261 151.047 76.9646 150.914 76.8401 150.749L73.5604 146.42C73.4548 146.281 73.3779 146.123 73.3341 145.954C73.2903 145.786 73.2806 145.61 73.3053 145.438C73.3301 145.266 73.3889 145.1 73.4784 144.95C73.5679 144.8 73.6863 144.67 73.8269 144.565C73.9675 144.461 74.1275 144.385 74.2978 144.342C74.468 144.299 74.6452 144.289 74.8192 144.314C74.9932 144.339 75.1605 144.397 75.3116 144.486C75.4628 144.575 75.5947 144.692 75.7 144.831L77.8457 147.663L83.3567 139.48C83.4538 139.334 83.579 139.21 83.7249 139.112C83.8709 139.015 84.0348 138.947 84.2073 138.913C84.3798 138.878 84.5575 138.878 84.7302 138.912C84.9028 138.945 85.067 139.012 85.2134 139.109C85.3598 139.206 85.4856 139.33 85.5834 139.475C85.6812 139.62 85.7491 139.782 85.7834 139.953C85.8176 140.124 85.8175 140.3 85.7829 140.471C85.7483 140.641 85.6801 140.804 85.582 140.948L79.0226 150.689C78.9039 150.866 78.7444 151.011 78.5572 151.113C78.3701 151.216 78.1608 151.273 77.947 151.278C77.9346 151.279 77.9222 151.279 77.9098 151.279Z" fill="white"/>
<path d="M53.9149 36.3936C57.0667 36.3936 59.6218 33.864 59.6218 30.7437C59.6218 27.6233 57.0667 25.0938 53.9149 25.0938C50.7631 25.0938 48.208 27.6233 48.208 30.7437C48.208 33.864 50.7631 36.3936 53.9149 36.3936Z" fill="#F2F2F2"/>
<path d="M33.1014 198.911C36.2533 198.911 38.8083 196.382 38.8083 193.261C38.8083 190.141 36.2533 187.611 33.1014 187.611C29.9496 187.611 27.3945 190.141 27.3945 193.261C27.3945 196.382 29.9496 198.911 33.1014 198.911Z" fill="#F2F2F2"/>
<path d="M164.359 58.3272C167.511 58.3272 170.066 55.7976 170.066 52.6772C170.066 49.5569 167.511 47.0273 164.359 47.0273C161.207 47.0273 158.652 49.5569 158.652 52.6772C158.652 55.7976 161.207 58.3272 164.359 58.3272Z" fill="#F2F2F2"/>
</g>
<defs>
<clipPath id="clip0_243_5432">
<rect width="192" height="229" fill="white"/>
</clipPath>
</defs>
</svg>
