<svg width="48" height="48" viewBox="0 0 48 48" fill="none" xmlns="http://www.w3.org/2000/svg">
<g clip-path="url(#clip0_19_16823)">
<path d="M22.0518 8H18.0518V0H22.0518V8ZM30.0518 0H26.0518V8H30.0518V0ZM-0.000209224 48H39.9998V44H-0.000209224V48ZM47.9858 26.286C47.9212 28.3585 47.0507 30.3241 45.5593 31.7647C44.0679 33.2053 42.0733 34.0073 39.9998 34H33.6898C32.2474 36.1381 30.6205 38.1458 28.8278 40H11.1798C5.58229 34.0997 1.73448 26.76 0.0657908 18.8C-0.0706345 17.9821 -0.0265773 17.1442 0.194876 16.3451C0.416329 15.546 0.809823 14.805 1.34779 14.174C1.91981 13.4931 2.63391 12.9457 3.43998 12.5701C4.24604 12.1946 5.12453 12 6.01379 12H33.9998C34.8878 12.0026 35.7645 12.199 36.5687 12.5755C37.3729 12.9521 38.0852 13.4996 38.6558 14.18C39.1937 14.8099 39.5874 15.5498 39.8092 16.3479C40.031 17.1459 40.0756 17.9829 39.9398 18.8C39.8698 19.2 39.7778 19.6 39.6938 20H39.9998C44.9238 20 47.9858 22.41 47.9858 26.286ZM35.5998 16.76C35.4036 16.5255 35.159 16.3362 34.8829 16.2051C34.6067 16.0739 34.3055 16.0039 33.9998 16H6.01579C5.71081 16.0035 5.41012 16.0724 5.13409 16.2022C4.85805 16.3319 4.61309 16.5194 4.41579 16.752C4.25275 16.9371 4.13241 17.1557 4.06328 17.3925C3.99415 17.6292 3.97794 17.8783 4.01579 18.122C5.34274 24.7585 8.40074 30.9263 12.8798 36H27.1278C31.6098 30.9295 34.6706 24.7636 35.9998 18.128C36.0373 17.8846 36.021 17.6359 35.9519 17.3995C35.8827 17.1632 35.7626 16.9448 35.5998 16.76ZM43.9998 26.286C43.9998 24.77 42.6558 24 39.9998 24H38.6258C37.9366 26.0658 37.0811 28.0724 36.0678 30H39.9998C41.0133 30.0082 41.9915 29.6278 42.7332 28.937C43.475 28.2462 43.9239 27.2976 43.9878 26.286H43.9998ZM14.0518 0H10.0518V8H14.0518V0Z" fill="#6A14D1"/>
</g>
<defs>
<clipPath id="clip0_19_16823">
<rect width="48" height="48" fill="white"/>
</clipPath>
</defs>
</svg>
