<svg width="24" height="25" viewBox="0 0 24 25" fill="none" xmlns="http://www.w3.org/2000/svg">
<g clip-path="url(#clip0_109_22801)">
<path d="M5.77734 14.4712L10.1316 21.4312C10.3004 21.7063 10.5375 21.933 10.8199 22.0892C11.1023 22.2455 11.4203 22.3259 11.7431 22.3227C11.9972 22.3318 12.2506 22.29 12.4883 22.1995C12.726 22.1091 12.9432 21.9719 13.127 21.7961C13.3108 21.6203 13.4575 21.4095 13.5584 21.176C13.6593 20.9426 13.7124 20.6913 13.7145 20.4369V15.4484H21.2402C21.5183 15.4394 21.7913 15.3716 22.0413 15.2495C22.2913 15.1274 22.5127 14.9538 22.6908 14.7401C22.8689 14.5263 22.9998 14.2773 23.0748 14.0094C23.1498 13.7414 23.1672 13.4607 23.1259 13.1855L21.7545 4.3398C21.696 3.86707 21.4668 3.43197 21.1101 3.11629C20.7534 2.80061 20.2937 2.62609 19.8173 2.62551H8.57163C8.03629 2.62342 7.5079 2.74671 7.02877 2.98551L5.79449 3.60266" stroke="#ED5254" stroke-width="2" stroke-linecap="round" stroke-linejoin="round"/>
<path d="M5.77734 14.4714V3.6543" stroke="#444444" stroke-width="1.71429" stroke-linecap="round" stroke-linejoin="round"/>
<path d="M1.71456 3.6543H5.77742V14.4714H1.71456C1.48724 14.4714 1.26922 14.3811 1.10847 14.2204C0.947728 14.0596 0.857422 13.8416 0.857422 13.6143V4.51144C0.857422 4.28411 0.947728 4.06609 1.10847 3.90535C1.26922 3.7446 1.48724 3.6543 1.71456 3.6543V3.6543Z" stroke="#ED5254" stroke-width="2" stroke-linecap="round" stroke-linejoin="round"/>
</g>
<defs>
<clipPath id="clip0_109_22801">
<rect width="24" height="24" fill="white" transform="translate(0 0.5)"/>
</clipPath>
</defs>
</svg>
