<svg width="142" height="142" viewBox="0 0 142 142" fill="none" xmlns="http://www.w3.org/2000/svg">
<path d="M44.1073 104.214C45.5925 104.214 46.7966 103.1 46.7966 101.726C46.7966 100.352 45.5925 99.2385 44.1073 99.2385C42.622 99.2385 41.418 100.352 41.418 101.726C41.418 103.1 42.622 104.214 44.1073 104.214Z" fill="#6A14D1"/>
<path d="M105.963 104.214C107.448 104.214 108.652 103.1 108.652 101.726C108.652 100.352 107.448 99.2385 105.963 99.2385C104.477 99.2385 103.273 100.352 103.273 101.726C103.273 103.1 104.477 104.214 105.963 104.214Z" fill="#6A14D1"/>
<path d="M126.94 75.8543L118.872 70.3814L111.073 48.7386C110.804 47.7434 109.728 46.9973 108.652 46.9973H84.4477C82.834 46.9973 81.7584 47.9925 81.7584 49.4849V99.2387H57.2848C55.9402 93.5169 50.5613 89.288 44.1069 89.288C37.6524 89.288 32.2735 93.5171 30.9289 99.2387H19.9021C18.2885 99.2387 17.2128 98.2435 17.2128 96.751V84.3126H73.6902C75.3039 84.3126 76.3795 83.3174 76.3795 81.8249C76.3795 80.3325 75.3036 79.3373 73.6902 79.3373H14.5235C12.9098 79.3371 11.834 80.3323 11.834 81.8247V96.7508C11.834 100.98 15.3301 104.214 19.9021 104.214H30.9286C32.2733 109.936 37.6521 114.165 44.1066 114.165C50.5611 114.165 55.94 109.935 57.2846 104.214H84.4474C86.0611 104.214 87.1367 103.219 87.1367 101.726V51.9725H106.769L112.955 69.3865H107.576L108.383 67.8938C108.921 66.65 108.383 65.1574 107.307 64.6599C105.962 64.1624 104.349 64.6599 103.811 65.655L101.659 69.3867H95.2049C93.5912 69.3867 92.5156 70.3819 92.5156 71.8743C92.5156 73.3667 93.5915 74.3619 95.2049 74.3619H115.913L123.712 79.8348C124.25 80.3323 124.788 81.0786 124.788 81.8249V96.751C124.788 98.2437 123.712 99.2387 122.099 99.2387H119.141C117.796 93.5169 112.417 89.288 105.963 89.288C98.4323 89.288 92.5156 94.7609 92.5156 101.726C92.5156 108.692 98.4323 114.165 105.963 114.165C112.417 114.165 117.796 109.936 119.141 104.214H122.099C126.671 104.214 130.167 100.98 130.167 96.7513V81.8252C130.167 79.586 129.091 77.347 126.94 75.8543ZM44.1066 109.189C39.5346 109.189 36.0385 105.955 36.0385 101.726C36.0385 97.4972 39.5346 94.2632 44.1066 94.2632C48.6786 94.2632 52.1748 97.4972 52.1748 101.726C52.1748 105.955 48.6786 109.189 44.1066 109.189ZM105.963 109.189C101.391 109.189 97.8947 105.955 97.8947 101.726C97.8947 97.4972 101.391 94.2632 105.963 94.2632C110.535 94.2632 114.031 97.4972 114.031 101.726C114.031 105.955 110.535 109.189 105.963 109.189Z" fill="#6A14D1"/>
<path d="M73.69 29.5833H19.9022C18.2885 29.5833 17.2129 30.5784 17.2129 32.0709V71.8739C17.2129 73.3666 18.2888 74.3615 19.9022 74.3615H73.69C75.3037 74.3615 76.3793 73.3664 76.3793 71.8739V32.0709C76.3796 30.5782 75.3037 29.5833 73.69 29.5833ZM52.1748 34.5587V42.2706L48.4097 39.783C47.6028 39.2855 46.2582 39.2855 45.4513 39.783L41.6862 42.2706V34.5587H52.1748ZM70.7317 69.3863H22.5915V34.5587H36.0385V46.9972C36.0385 47.9923 36.5763 48.7385 37.3832 49.2362C38.19 49.7338 39.2656 49.7336 40.0725 49.2362L46.527 45.2559L52.9815 49.2362C53.5193 49.485 54.0573 49.7336 54.5951 49.7336C55.1329 49.7336 55.402 49.7336 55.9398 49.4848C56.7466 48.9873 57.2844 48.241 57.2844 47.2458V34.5587H70.7315V69.3863H70.7317Z" fill="#6A14D1"/>
<path d="M41.4175 59.4353H30.66C29.0463 59.4353 27.9707 60.4305 27.9707 61.9229C27.9707 63.4156 29.0466 64.4105 30.66 64.4105H41.4175C43.0312 64.4105 44.1068 63.4154 44.1068 61.9229C44.1068 60.4305 43.0312 59.4353 41.4175 59.4353Z" fill="#6A14D1"/>
</svg>
