<svg width="142" height="142" viewBox="0 0 142 142" fill="none" xmlns="http://www.w3.org/2000/svg">
<path d="M35.5008 65.9287C52.3061 65.9287 65.9294 52.3053 65.9294 35.5001C65.9294 18.6949 52.3061 5.07153 35.5008 5.07153C18.6956 5.07153 5.07227 18.6949 5.07227 35.5001C5.07227 52.3053 18.6956 65.9287 35.5008 65.9287Z" stroke="#6A14D1" stroke-width="5" stroke-linecap="round" stroke-linejoin="round"/>
<path d="M106.501 65.9286C117.704 65.9286 126.786 56.8464 126.786 45.6429C126.786 34.4394 117.704 25.3572 106.501 25.3572C95.2971 25.3572 86.2148 34.4394 86.2148 45.6429C86.2148 56.8464 95.2971 65.9286 106.501 65.9286Z" stroke="#6A14D1" stroke-width="5" stroke-linecap="round" stroke-linejoin="round"/>
<path d="M101.429 91.2859H45.6429C40.0411 91.2859 35.5 95.827 35.5 101.429V126.786C35.5 132.388 40.0411 136.929 45.6429 136.929H101.429C107.03 136.929 111.571 132.388 111.571 126.786V101.429C111.571 95.827 107.03 91.2859 101.429 91.2859Z" stroke="#6A14D1" stroke-width="5" stroke-linecap="round" stroke-linejoin="round"/>
<path d="M136.93 101.429V126.786" stroke="#6A14D1" stroke-width="5" stroke-linecap="round" stroke-linejoin="round"/>
</svg>
