<svg width="142" height="142" viewBox="0 0 142 142" fill="none" xmlns="http://www.w3.org/2000/svg">
<path d="M96.3566 15.2144H111.571C114.261 15.2144 116.841 16.283 118.743 18.1851C120.645 20.0873 121.714 22.6672 121.714 25.3572V126.786C121.714 129.476 120.645 132.056 118.743 133.958C116.841 135.86 114.261 136.929 111.571 136.929H30.428C27.738 136.929 25.1581 135.86 23.2559 133.958C21.3538 132.056 20.2852 129.476 20.2852 126.786V25.3572C20.2852 22.6672 21.3538 20.0873 23.2559 18.1851C25.1581 16.283 27.738 15.2144 30.428 15.2144H45.6423" stroke="#6A14D1" stroke-width="5" stroke-linecap="round" stroke-linejoin="round"/>
<path d="M86.214 5.07153H55.7854C50.1837 5.07153 45.6426 9.61264 45.6426 15.2144V20.2858C45.6426 25.8876 50.1837 30.4287 55.7854 30.4287H86.214C91.8158 30.4287 96.3569 25.8876 96.3569 20.2858V15.2144C96.3569 9.61264 91.8158 5.07153 86.214 5.07153Z" stroke="#6A14D1" stroke-width="5" stroke-linecap="round" stroke-linejoin="round"/>
<path d="M45.6426 55.7859H96.3569" stroke="#6A14D1" stroke-width="5" stroke-linecap="round" stroke-linejoin="round"/>
<path d="M45.6426 81.1431H96.3569" stroke="#6A14D1" stroke-width="5" stroke-linecap="round" stroke-linejoin="round"/>
<path d="M45.6426 106.5H96.3569" stroke="#6A14D1" stroke-width="5" stroke-linecap="round" stroke-linejoin="round"/>
</svg>
