<svg width="32" height="32" viewBox="0 0 32 32" fill="none" xmlns="http://www.w3.org/2000/svg">
<path d="M23.9997 1.14282H7.99972C4.21263 1.14282 1.14258 4.21287 1.14258 7.99997V24C1.14258 27.7871 4.21263 30.8571 7.99972 30.8571H23.9997C27.7868 30.8571 30.8569 27.7871 30.8569 24V7.99997C30.8569 4.21287 27.7868 1.14282 23.9997 1.14282Z" stroke="#26AB6D" stroke-width="2" stroke-linecap="round" stroke-linejoin="round"/>
<path d="M9.14258 18.2857L13.8283 22.0343C13.9541 22.1379 14.1015 22.2122 14.2596 22.2517C14.4178 22.2912 14.5828 22.295 14.7426 22.2628C14.9039 22.2326 15.0568 22.1679 15.1909 22.0732C15.325 21.9786 15.4372 21.8561 15.5197 21.7143L22.8569 9.14282" stroke="#26AB6D" stroke-width="2" stroke-linecap="round" stroke-linejoin="round"/>
</svg>
