<svg width="142" height="142" viewBox="0 0 142 142" fill="none" xmlns="http://www.w3.org/2000/svg">
<path d="M128.521 94.561C126.515 91.4998 120.399 88.5536 115.636 89.0157C115.636 88.7847 115.636 88.4189 115.636 88.1878C115.636 86.1854 112.879 85.704 111.349 86.5317C111.199 86.4162 111.049 86.3009 110.898 86.1852C96.3341 80.1778 79.1379 78.753 62.8692 78.5219C50.7617 78.2909 26.5215 77.8095 17.2967 85.4728C16.3693 85.1262 15.4668 84.6448 14.5393 84.2982C13.0102 83.5858 11.1552 85.2417 12.0827 86.1852C11.9323 86.3009 11.9323 86.5317 11.9323 86.7822C10.4032 109.406 33.5655 125.31 61.6409 127.082C79.4387 128.141 94.9304 122.48 104.757 112.814C106.587 116.357 112.728 116.107 116.714 114.816C121.777 113.161 125.914 109.868 128.22 106.094C130.526 102.455 130.977 98.2193 128.521 94.561ZM35.4204 84.7798C43.2415 83.4897 51.3633 83.1239 59.3598 83.0084C73.4727 82.7773 88.9643 83.7208 102.325 87.9568C79.3134 95.1386 46.9514 95.2542 23.4633 87.6102C27.5744 86.7822 31.4097 85.4922 35.4204 84.7798ZM63.6463 122.384C37.5762 122.268 18.8509 107.192 15.6172 88.0915C40.9353 101.165 83.274 100.222 109.67 90.4406C106.286 109.406 89.8667 122.615 63.6463 122.384ZM122.705 104.458C121.026 107.057 118.418 109.291 115.185 110.696C111.801 112.236 108.893 111.043 105.509 111.755C110.572 106.46 113.956 100.087 115.009 93.0205C117.917 94.0795 121.301 94.1952 123.282 96.6788C125.312 99.1628 124.234 102.224 122.705 104.458Z" fill="#6A14D1"/>
<path d="M37.2755 69.8483C34.5391 67.9196 32.6718 66.1022 32.6718 61.0023C32.6718 57.8311 33.2472 54.7526 33.4586 51.6926C33.8227 46.0178 31.2272 40.7881 27.422 41.8267C26.412 42.0492 26.412 44.3302 27.1402 45.1091C29.0075 46.9266 30.7339 46.8153 30.7339 51.0065C30.7339 54.0664 30.1585 57.2562 30.0175 60.3161C29.7357 67.0109 32.6013 71.4432 36.6296 72.4632C37.4987 72.6859 38.2151 70.5347 37.2755 69.8483Z" fill="#6A14D1"/>
<path d="M68.7111 55.2462C70.056 52.6848 71 50.1424 71 46.7652C70.9223 36.311 59.284 31.7954 65.9308 21.5688C67.2757 19.4818 65.142 16.3512 63.7195 18.4383C61.4306 21.5688 58.896 25.9896 60.3185 30.8657C62.1419 36.8991 68.7887 41.4337 67.6766 48.985C66.9654 53.975 62.0514 57.3522 62.2971 62.7975C62.4522 67.6736 65.4653 69.0586 68.4654 69.0586C68.9439 69.0586 69.0991 68.1289 68.6983 67.7874C64.0299 63.4805 65.9308 60.5778 68.7111 55.2462Z" fill="#6A14D1"/>
<path d="M108.882 28.5951C105.426 32.6667 103.662 36.979 105.426 42.8644C106.222 45.4739 108.796 50.3414 106.222 52.8399C104.631 54.4316 102.057 54.7647 100.206 55.3385C98.1676 56.0232 94.0177 56.9301 93.3091 60.2059C92.5139 64.3886 95.7819 67.3499 98.3556 68.923C99.2376 69.4967 100.12 68.1272 99.4111 67.1093C98.7894 66.2024 95.0732 62.1307 96.7505 60.8722C97.9942 59.8543 99.6714 59.6322 101.088 59.1695C103.561 58.3737 106.395 57.9295 108.521 55.8937C110.386 54.191 110.993 50.2304 110.56 47.5098C109.316 40.7175 106.395 37.7748 111.268 31.4267C112.598 29.613 110.386 26.7812 108.882 28.5951Z" fill="#6A14D1"/>
</svg>
