<svg width="24" height="25" viewBox="0 0 24 25" fill="none" xmlns="http://www.w3.org/2000/svg">
<g clip-path="url(#clip0_109_7652)">
<path d="M5.77734 10.5284L10.1316 3.56845C10.3004 3.29335 10.5375 3.06665 10.8199 2.91043C11.1023 2.75421 11.4203 2.6738 11.7431 2.67702V2.67702C11.9972 2.66785 12.2506 2.70971 12.4883 2.80015C12.726 2.89059 12.9432 3.02776 13.127 3.20355C13.3108 3.37935 13.4575 3.5902 13.5584 3.82366C13.6593 4.05711 13.7124 4.30842 13.7145 4.56273V9.55131H21.2402C21.5183 9.56032 21.7913 9.6281 22.0413 9.75018C22.2913 9.87226 22.5127 10.0459 22.6908 10.2596C22.8689 10.4734 22.9998 10.7224 23.0748 10.9903C23.1498 11.2582 23.1672 11.539 23.1259 11.8142L21.7545 20.6599C21.696 21.1326 21.4668 21.5677 21.1101 21.8834C20.7534 22.1991 20.2937 22.3736 19.8173 22.3742H8.57163C8.03629 22.3763 7.5079 22.253 7.02877 22.0142L5.79449 21.397" stroke="#26AB6D" stroke-width="2" stroke-linecap="round" stroke-linejoin="round"/>
<path d="M5.77734 10.5283V21.3455" stroke="#26AB6D" stroke-width="1.71429" stroke-linecap="round" stroke-linejoin="round"/>
<path d="M1.71456 10.5283H5.77742V21.3455H1.71456C1.48724 21.3455 1.26922 21.2552 1.10847 21.0944C0.947728 20.9337 0.857422 20.7156 0.857422 20.4883V11.3855C0.857422 11.1581 0.947728 10.9401 1.10847 10.7794C1.26922 10.6186 1.48724 10.5283 1.71456 10.5283V10.5283Z" stroke="#26AB6D" stroke-width="2" stroke-linecap="round" stroke-linejoin="round"/>
</g>
<defs>
<clipPath id="clip0_109_7652">
<rect width="24" height="24" fill="white" transform="translate(0 0.5)"/>
</clipPath>
</defs>
</svg>
